<svg width="135" height="147" viewBox="0 0 135 147" fill="none" xmlns="http://www.w3.org/2000/svg">
<g clip-path="url(#clip0)">
<path d="M87.2935 99.3539C87.3855 99.1675 87.4334 98.9625 87.4334 98.7548C87.4334 98.547 87.3855 98.342 87.2935 98.1557L77.4596 78.1617C76.7495 78.7396 75.9193 79.1516 75.0296 79.3677L84.5633 98.7535L74.9287 118.333V124.164C74.9227 124.393 74.8576 124.617 74.7397 124.813H74.7527C74.7527 124.795 74.7786 124.78 74.7889 124.762L87.2935 99.3539Z" fill="white"/>
<path d="M72.2217 124.164V118.331L62.5948 98.7535L72.1259 79.3625C71.2371 79.1449 70.4079 78.7321 69.6985 78.154L59.8646 98.1531C59.7739 98.3398 59.7268 98.5446 59.7268 98.7522C59.7268 98.9597 59.7739 99.1646 59.8646 99.3513L72.3588 124.759C72.3691 124.777 72.3804 124.794 72.3925 124.811C72.2812 124.613 72.2224 124.391 72.2217 124.164Z" fill="white"/>
<path d="M73.5803 79.554C73.1228 79.5523 72.667 79.4985 72.2217 79.3936V118.331L73.5777 121.092L74.9338 118.333V79.3987C74.4896 79.4992 74.0358 79.5513 73.5803 79.554Z" fill="white"/>
<path d="M72.2217 118.331V124.164C72.2267 124.393 72.2909 124.617 72.408 124.813H74.7371C74.855 124.617 74.9201 124.393 74.926 124.164V118.333L73.57 121.092L72.2217 118.331Z" fill="white"/>
<path d="M59.8672 48.5306L69.7011 68.5271C70.4099 67.948 71.2393 67.5351 72.1286 67.3186L62.5974 47.9328L72.2243 28.3529V22.5199C72.2273 22.3594 72.2588 22.2008 72.3175 22.0515H72.2994L59.8776 47.335C59.7853 47.5205 59.7365 47.7245 59.7347 47.9316C59.7329 48.1387 59.7782 48.3436 59.8672 48.5306Z" fill="white"/>
<path d="M74.9337 22.5199V28.3503L84.5632 47.9328L75.0243 67.316C75.914 67.532 76.7442 67.944 77.4543 68.5219L87.2882 48.5306C87.3802 48.3447 87.428 48.1402 87.428 47.9328C87.428 47.7254 87.3802 47.5209 87.2882 47.335L74.8509 22.0515H74.8328C74.894 22.2003 74.9282 22.359 74.9337 22.5199Z" fill="white"/>
<path d="M73.5803 67.1271C74.0358 67.1307 74.4896 67.1836 74.9338 67.2849V28.3504L73.5777 25.5917L72.2217 28.3529V67.2875C72.6672 67.1839 73.1229 67.1301 73.5803 67.1271Z" fill="white"/>
<path d="M74.9338 28.3503V22.5199C74.93 22.3593 74.8975 22.2007 74.838 22.0515H72.3148C72.2562 22.2008 72.2246 22.3594 72.2217 22.5199V28.3529L73.5777 25.5917L74.9338 28.3503Z" fill="white"/>
<path d="M124.416 74.7043H118.573L98.9957 84.3287L79.6048 74.8001C79.3882 75.6893 78.9753 76.5188 78.3962 77.2275L98.3953 87.0615C98.5817 87.1534 98.7866 87.2013 98.9944 87.2013C99.2022 87.2013 99.4072 87.1534 99.5935 87.0615L125.001 74.5698C125.048 74.542 125.093 74.5118 125.136 74.4792V74.4456C124.927 74.6012 124.677 74.6913 124.416 74.7043Z" fill="white"/>
<path d="M99.5936 59.6274C99.4069 59.5367 99.2021 59.4896 98.9945 59.4896C98.787 59.4896 98.5821 59.5367 98.3954 59.6274L78.4015 69.4613C78.9788 70.1708 79.3908 71.0001 79.6074 71.8887L98.9958 62.3524L118.576 71.9871H124.417C124.68 71.9938 124.935 72.0795 125.149 72.2329V72.2174C125.106 72.1848 125.061 72.1546 125.014 72.1268L99.5936 59.6274Z" fill="white"/>
<path d="M79.7939 73.3405C79.7952 73.7992 79.7457 74.2566 79.6464 74.7043H118.573L121.329 73.3483L118.576 71.9922H79.6464C79.7453 72.4348 79.7948 72.887 79.7939 73.3405Z" fill="white"/>
<path d="M118.573 74.7043H124.416C124.68 74.6976 124.935 74.6119 125.149 74.4585V72.2381C124.935 72.0847 124.68 71.999 124.416 71.9922H118.576L121.329 73.3483L118.573 74.7043Z" fill="white"/>
<path d="M48.1726 87.1934C48.3799 87.1933 48.5845 87.1455 48.7704 87.0537L68.7669 77.2198C68.188 76.5105 67.7743 75.6813 67.5557 74.7923L48.1726 84.3209L28.5927 74.7043H22.7596C22.628 74.6973 22.4981 74.6711 22.374 74.6267V74.6681L47.5748 87.0563C47.7609 87.1472 47.9654 87.1941 48.1726 87.1934Z" fill="white"/>
<path d="M22.7596 71.9897H28.5875L48.1726 62.355L67.5557 71.8913C67.7724 71.0027 68.1844 70.1734 68.7617 69.4639L48.7704 59.63C48.5841 59.5394 48.3797 59.4923 48.1726 59.4923C47.9654 59.4923 47.761 59.5394 47.5748 59.63L22.374 72.0285V72.0699C22.498 72.0246 22.6279 71.9976 22.7596 71.9897Z" fill="white"/>
<path d="M67.3694 73.3405C67.3721 72.886 67.4242 72.433 67.5247 71.9897H28.5875L25.8314 73.3457L28.5927 74.7043H67.5273C67.4244 74.257 67.3715 73.7996 67.3694 73.3405Z" fill="white"/>
<path d="M28.5875 71.9897H22.7596C22.628 71.9968 22.4981 72.0229 22.374 72.0673V74.6241C22.4981 74.6686 22.628 74.6947 22.7596 74.7018H28.5927L25.8314 73.3457L28.5875 71.9897Z" fill="white"/>
<path d="M72.2216 67.2875C72.188 67.2875 72.1569 67.3108 72.1259 67.3186L72.2216 67.5101V67.2875Z" fill="white"/>
<path d="M74.9338 79.3988C74.9675 79.3988 74.996 79.3755 75.0296 79.3677L74.9338 79.171V79.3988Z" fill="white"/>
<path d="M77.4596 78.1618C77.804 77.8834 78.118 77.5694 78.3964 77.225L76.5409 76.3166L77.4596 78.1618Z" fill="white"/>
<path d="M67.755 71.9897L67.5557 71.8913C67.5557 71.925 67.5324 71.956 67.5247 71.9897H67.755Z" fill="white"/>
<path d="M79.4133 74.7043L79.6048 74.8001C79.6048 74.7665 79.6281 74.7354 79.6359 74.7043H79.4133Z" fill="white"/>
<path d="M74.9338 67.5126L75.0296 67.316C74.996 67.316 74.9675 67.2927 74.9338 67.2849V67.5126Z" fill="white"/>
<path d="M68.7772 77.2249C69.0546 77.567 69.3668 77.8792 69.7089 78.1566L70.612 76.3218L68.7772 77.2249Z" fill="white"/>
<path d="M72.2216 79.1736L72.1259 79.3651C72.1569 79.3651 72.188 79.3884 72.2216 79.3936V79.1736Z" fill="white"/>
<path d="M79.6463 71.9897C79.6463 71.956 79.6256 71.925 79.6179 71.8913L79.4186 71.9897H79.6463Z" fill="white"/>
<path d="M78.4016 69.4639C78.1221 69.1172 77.8063 68.8014 77.4596 68.5219L76.5409 70.3748L78.4016 69.4639Z" fill="white"/>
<path d="M67.5272 74.7043C67.5272 74.7354 67.5505 74.7665 67.5557 74.8001L67.742 74.7043H67.5272Z" fill="white"/>
<path d="M69.6984 68.5271C69.3534 68.8048 69.0393 69.1189 68.7616 69.4639L70.6042 70.3697L69.6984 68.5271Z" fill="white"/>
<path d="M74.9338 75.5195V79.171L75.0296 79.3677C75.9193 79.1516 76.7495 78.7396 77.4596 78.1617L76.5409 76.3166L74.9338 75.5195Z" fill="white"/>
<path d="M72.2217 75.5247L70.6016 76.3218L69.6985 78.1566C70.4078 78.7347 71.2371 79.1475 72.1259 79.3651L72.2217 79.1736V75.5247Z" fill="white"/>
<path d="M72.2217 79.1736V79.3936C72.667 79.4985 73.1228 79.5523 73.5803 79.554C74.0358 79.5513 74.4896 79.4993 74.9338 79.3988V79.171L73.5777 76.4149L72.2217 79.1736Z" fill="white"/>
<path d="M72.2217 75.5247V79.171L73.5777 76.4124L74.9338 79.171V75.5195L73.5829 74.8545L72.2217 75.5247Z" fill="white"/>
<path d="M72.2217 71.1641V67.5101L72.1259 67.3185C71.2367 67.5351 70.4072 67.948 69.6985 68.5271L70.6042 70.3697L72.2217 71.1641Z" fill="white"/>
<path d="M74.9338 67.5127V71.1693L76.5461 70.3748L77.4596 68.5219C76.7495 67.944 75.9193 67.532 75.0296 67.316L74.9338 67.5127Z" fill="white"/>
<path d="M73.5803 67.1271C73.1229 67.1301 72.6672 67.1839 72.2217 67.2875V67.5101L73.5777 70.2688L74.9338 67.5127V67.2849C74.4896 67.1836 74.0358 67.1307 73.5803 67.1271Z" fill="white"/>
<path d="M72.2217 67.5101V71.1641L73.5829 71.8344L74.9338 71.1693V67.5127L73.5777 70.2687L72.2217 67.5101Z" fill="white"/>
<path d="M75.7645 71.9897H79.4212L79.6205 71.8914C79.4038 71.0027 78.9918 70.1734 78.4145 69.4639L76.5409 70.3749L75.7645 71.9897Z" fill="white"/>
<path d="M75.7645 74.7043L76.559 76.3192L78.4042 77.2275C78.9832 76.5188 79.3962 75.6893 79.6127 74.8001L79.4212 74.7043H75.7645Z" fill="white"/>
<path d="M74.9338 75.5196L76.5513 76.3166L75.7568 74.7018H74.9338V75.5196Z" fill="white"/>
<path d="M73.896 74.7018L73.5829 74.8545L74.9338 75.5196V74.7018H73.896Z" fill="white"/>
<path d="M75.7516 71.9897L76.5461 70.3748L74.9338 71.1693V71.9897H75.7516Z" fill="white"/>
<path d="M73.896 71.9897H74.9338V71.1693L73.5829 71.8344L73.896 71.9897Z" fill="white"/>
<path d="M79.4132 74.7043H79.6461C79.7488 74.2578 79.8018 73.8013 79.804 73.3431C79.8017 72.8884 79.7487 72.4353 79.6461 71.9922H79.4184L76.6649 73.3483L79.4132 74.7043Z" fill="white"/>
<path d="M75.7567 74.7018H79.4133L76.6547 73.3431L79.4081 71.9897H75.7515L75.089 73.3406L75.7567 74.7018Z" fill="white"/>
<path d="M74.9338 73.6563V74.7018H75.7568L75.0891 73.3405L74.9338 73.6563Z" fill="white"/>
<path d="M74.8148 73.8995L74.7941 73.9409C74.7941 73.9409 74.7786 73.959 74.7734 73.9694C74.7278 74.0544 74.6731 74.1342 74.6104 74.2075C74.5948 74.2256 74.5845 74.2463 74.569 74.2644L74.5172 74.3188C74.4627 74.3699 74.4028 74.415 74.3386 74.4533L74.2636 74.5051C74.2351 74.5232 74.2092 74.5465 74.1808 74.562L73.8961 74.7018H74.9313V73.6666L74.8329 73.8659C74.8262 73.8767 74.8202 73.888 74.8148 73.8995Z" fill="white"/>
<path d="M74.9338 73.0248L75.0891 73.3406L75.7516 71.9897H74.9338V73.0248Z" fill="white"/>
<path d="M74.939 73.3457C74.939 73.3457 74.939 73.369 74.939 73.3794V73.6692L75.0942 73.3535L74.939 73.0403V73.325C74.939 73.325 74.939 73.3354 74.939 73.3457Z" fill="white"/>
<path d="M74.3385 74.4456L74.2634 74.4973L74.3385 74.4456Z" fill="white"/>
<path d="M74.8431 73.8115C74.8431 73.8271 74.8431 73.8426 74.8431 73.8555L74.9415 73.6563V73.3794C74.9329 73.5279 74.8997 73.6739 74.8431 73.8115Z" fill="white"/>
<path d="M74.7733 73.9694C74.7733 73.9694 74.7888 73.9513 74.794 73.9409L74.8147 73.8995C74.8147 73.9151 74.794 73.9228 74.7863 73.9384C74.7831 73.9491 74.7787 73.9595 74.7733 73.9694Z" fill="white"/>
<path d="M74.5688 74.2644C74.5844 74.2463 74.5947 74.2256 74.6102 74.2075C74.6022 74.2198 74.5926 74.2311 74.5818 74.2411L74.5688 74.2644Z" fill="white"/>
<path d="M74.2273 72.1605C74.2851 72.1945 74.3404 72.2326 74.3929 72.2743C74.4365 72.3033 74.478 72.3353 74.5171 72.3701L74.5378 72.3856L74.5559 72.4089C74.5858 72.4434 74.6134 72.4797 74.6388 72.5176C74.6862 72.5751 74.7287 72.6366 74.7656 72.7013C74.7656 72.7143 74.7863 72.7272 74.794 72.7428L74.8277 72.8152L74.9286 73.0222V71.9871H73.8934L74.1781 72.1268C74.2117 72.1372 74.2118 72.1527 74.2273 72.1605Z" fill="white"/>
<path d="M74.8431 72.8747C74.8967 73.0146 74.9273 73.1623 74.9337 73.3121V73.0274L74.8328 72.8204C74.8379 72.8359 74.8379 72.8592 74.8431 72.8747Z" fill="white"/>
<path d="M74.8276 72.8152L74.794 72.7428C74.794 72.7272 74.7733 72.7143 74.7655 72.7014L74.7888 72.7557C74.7991 72.7764 74.8198 72.7919 74.8276 72.8152Z" fill="white"/>
<path d="M74.2273 72.1605C74.2845 72.1954 74.3398 72.2334 74.3929 72.2743C74.3404 72.2326 74.2851 72.1945 74.2273 72.1605Z" fill="white"/>
<path d="M74.6387 72.5176C74.6134 72.4797 74.5858 72.4434 74.5559 72.4089C74.5627 72.4216 74.5705 72.4337 74.5792 72.4451C74.6004 72.4681 74.6203 72.4923 74.6387 72.5176Z" fill="white"/>
<path d="M74.5378 72.3753L74.5171 72.3597L74.5378 72.3753Z" fill="white"/>
<path d="M71.4014 71.9897L70.6043 70.3697L68.7617 69.4639C68.1844 70.1734 67.7725 71.0027 67.5558 71.8914L67.755 71.9897H71.4014Z" fill="white"/>
<path d="M71.3963 74.7043H67.7422L67.5481 74.8001C67.7666 75.6891 68.1803 76.5183 68.7592 77.2275L70.594 76.3244L71.3963 74.7043Z" fill="white"/>
<path d="M71.3988 74.7018L70.6017 76.3218L72.2217 75.5247V74.7018H71.3988Z" fill="white"/>
<path d="M73.2672 74.7018H72.2217V75.5247L73.5829 74.8545L73.2672 74.7018Z" fill="white"/>
<path d="M72.2216 71.1641L70.6068 70.3697L71.4013 71.9897H72.2216V71.1641Z" fill="white"/>
<path d="M73.2672 71.9897L73.5829 71.8344L72.2217 71.1642V71.9897H73.2672Z" fill="white"/>
<path d="M73.2672 74.7018L73.5829 74.8545L73.8961 74.7018H73.5829H73.2672Z" fill="white"/>
<path d="M73.5467 71.9897H73.5777H73.6062H73.8961L73.5803 71.8344L73.2672 71.9897H73.5467Z" fill="white"/>
<path d="M74.7734 73.9694C74.7284 74.0548 74.6737 74.1347 74.6104 74.2075C74.6731 74.1342 74.7278 74.0544 74.7734 73.9694Z" fill="white"/>
<path d="M74.3386 74.4456C74.4028 74.4073 74.4627 74.3622 74.5172 74.311C74.4913 74.3369 74.4551 74.3498 74.4266 74.3731C74.3981 74.3964 74.3697 74.4456 74.3386 74.4456Z" fill="white"/>
<path d="M74.2635 74.5051C74.2425 74.5157 74.2209 74.5252 74.1988 74.5336C74.1435 74.5647 74.0855 74.5907 74.0254 74.6112C73.9084 74.6518 73.7866 74.677 73.6631 74.6862C73.6347 74.6862 73.6114 74.7018 73.5803 74.7018H73.896L74.1807 74.562C74.2118 74.5465 74.2351 74.5232 74.2635 74.5051Z" fill="white"/>
<path d="M74.8431 73.8115C74.897 73.6735 74.9276 73.5274 74.9337 73.3794C74.9282 73.5275 74.8976 73.6736 74.8431 73.8115Z" fill="white"/>
<path d="M74.5818 74.2411C74.5926 74.2311 74.6022 74.2198 74.6103 74.2075C74.6736 74.1347 74.7283 74.0548 74.7733 73.9694C74.7787 73.9595 74.783 73.9491 74.7862 73.9383C74.733 74.0486 74.6642 74.1506 74.5818 74.2411Z" fill="white"/>
<path d="M74.2118 74.5335C74.2338 74.5251 74.2554 74.5156 74.2765 74.5051L74.3515 74.4533C74.3826 74.4326 74.4111 74.4042 74.4395 74.3809C74.3694 74.44 74.2931 74.4912 74.2118 74.5335Z" fill="white"/>
<path d="M74.0254 74.6112C73.9087 74.653 73.7868 74.6783 73.6631 74.6863C73.7866 74.677 73.9084 74.6518 74.0254 74.6112Z" fill="white"/>
<path d="M74.6387 72.5176C74.6868 72.5746 74.7292 72.6362 74.7655 72.7014C74.7286 72.6366 74.6862 72.5751 74.6387 72.5176Z" fill="white"/>
<path d="M74.5171 72.3753C74.4779 72.3405 74.4364 72.3085 74.3928 72.2795L74.4756 72.3468C74.4886 72.3546 74.5067 72.3598 74.5171 72.3753Z" fill="white"/>
<path d="M74.0461 72.0803C74.087 72.0957 74.1267 72.1139 74.1652 72.1346L74.2273 72.1605C74.2092 72.1605 74.1988 72.1372 74.1807 72.1294L73.896 71.9897H73.6062C73.7569 71.9948 73.9057 72.0254 74.0461 72.0803Z" fill="white"/>
<path d="M74.7888 72.7557L74.7656 72.7013C74.7293 72.6361 74.6868 72.5746 74.6387 72.5176C74.6203 72.4923 74.6005 72.4681 74.5792 72.4451C74.6642 72.5376 74.7348 72.6423 74.7888 72.7557Z" fill="white"/>
<path d="M74.0461 72.0803C73.9057 72.0254 73.7569 71.9948 73.6062 71.9897C73.7569 71.9952 73.9056 72.0258 74.0461 72.0803Z" fill="white"/>
<path d="M74.3929 72.2743C74.3398 72.2334 74.2845 72.1954 74.2273 72.1605L74.1652 72.1346C74.2779 72.1886 74.3825 72.2583 74.4757 72.3416L74.3929 72.2743Z" fill="white"/>
<path d="M74.9337 73.3121C74.9274 73.1624 74.8968 73.0147 74.8431 72.8747C74.8982 73.0178 74.9289 73.1692 74.9337 73.3224V73.3121Z" fill="white"/>
<path d="M74.4706 72.3468C74.4706 72.3468 74.4991 72.3623 74.5094 72.3727C74.5094 72.3727 74.481 72.3572 74.468 72.3442L74.4706 72.3468Z" fill="white"/>
<path d="M74.1626 72.132C74.1242 72.1113 74.0844 72.0931 74.0436 72.0777H74.0565L74.1626 72.132Z" fill="white"/>
<path d="M73.5803 71.9897C73.7444 71.992 73.9067 72.0244 74.0591 72.0854H74.0461C73.9023 72.0298 73.75 71.9992 73.5958 71.9949L73.5803 71.9897Z" fill="white"/>
<path d="M74.4706 72.3468C74.3773 72.2635 74.2728 72.1938 74.16 72.1398C74.2723 72.1946 74.3768 72.2643 74.4706 72.3468Z" fill="white"/>
<path d="M67.755 71.9897H67.5247C67.4242 72.433 67.3721 72.886 67.3694 73.3406C67.3716 73.7987 67.4246 74.2552 67.5272 74.7018H67.742L70.5007 73.3457L67.755 71.9897Z" fill="white"/>
<path d="M74.5431 74.2903C74.542 74.2945 74.542 74.299 74.5431 74.3032L74.5276 74.3187L74.5794 74.2644H74.5664L74.5431 74.2903Z" fill="white"/>
<path d="M74.8354 73.8555L74.8147 73.8995C74.8205 73.8844 74.8275 73.8697 74.8354 73.8555Z" fill="white"/>
<path d="M74.5559 74.2722H74.5689L74.5818 74.2489C74.5741 74.2576 74.5654 74.2655 74.5559 74.2722Z" fill="white"/>
<path d="M74.8019 73.9047C74.7978 73.9164 74.7926 73.9276 74.7864 73.9383C74.7864 73.9228 74.8071 73.915 74.8148 73.8995L74.8355 73.8555C74.8355 73.8426 74.8355 73.827 74.8355 73.8115C74.836 73.8193 74.836 73.8271 74.8355 73.8348C74.8259 73.8588 74.8147 73.8822 74.8019 73.9047Z" fill="white"/>
<path d="M74.5431 74.2903C74.542 74.2945 74.542 74.299 74.5431 74.3032C74.542 74.299 74.542 74.2945 74.5431 74.2903Z" fill="white"/>
<path d="M74.556 72.4089L74.5378 72.3856C74.5378 72.3856 74.5378 72.3856 74.5508 72.4037L74.556 72.4089Z" fill="white"/>
<path d="M74.5689 72.4322C74.5603 72.4207 74.5525 72.4086 74.5457 72.396C74.5524 72.4086 74.5602 72.4208 74.5689 72.4322Z" fill="white"/>
<path d="M74.7941 72.766C74.8094 72.7964 74.8233 72.8275 74.8355 72.8592V72.8747C74.8355 72.8592 74.8355 72.8359 74.8355 72.8204C74.8355 72.7971 74.807 72.7816 74.7967 72.7609L74.7941 72.766Z" fill="white"/>
<path d="M74.5352 72.3934H74.5507C74.5507 72.3934 74.5507 72.3804 74.5378 72.3753L74.5197 72.3623L74.5352 72.3934Z" fill="white"/>
<path d="M74.8329 73.8348C74.8329 73.8607 74.8122 73.8814 74.8019 73.9047C74.8138 73.8821 74.8242 73.8588 74.8329 73.8348Z" fill="white"/>
<path d="M74.5508 72.4037H74.5353L74.5689 72.4426C74.5619 72.4301 74.5558 72.4171 74.5508 72.4037Z" fill="white"/>
<path d="M74.7941 72.7661C74.8096 72.7971 74.8225 72.8282 74.8355 72.8592C74.8233 72.8275 74.8094 72.7964 74.7941 72.7661Z" fill="white"/>
<path d="M71.4014 71.9897H67.7551L70.5085 73.3431L67.7499 74.7018H71.3988L72.0664 73.3406L71.4014 71.9897Z" fill="white"/>
<path d="M72.2216 73.6537L72.0664 73.3405L71.3987 74.7018H72.2216V73.6537Z" fill="white"/>
<path d="M72.9178 74.5206C72.8639 74.4885 72.8121 74.4531 72.7626 74.4145C72.7207 74.3855 72.6809 74.3535 72.6435 74.3188L72.6177 74.3032L72.6021 74.28C72.5631 74.2372 72.5277 74.1913 72.496 74.1428C72.462 74.1006 72.4317 74.0556 72.4054 74.0082C72.4054 73.9849 72.3718 73.9642 72.3589 73.9384L72.2191 73.6563V74.6914H73.2543L72.9696 74.5517C72.9618 74.5517 72.9437 74.531 72.9178 74.5206Z" fill="white"/>
<path d="M72.2216 73.0274V71.9897H71.4012L72.0663 73.3406L72.2216 73.0274Z" fill="white"/>
<path d="M72.2216 73.0274L72.0663 73.3405L72.2216 73.6537V73.3405V73.0274Z" fill="white"/>
<path d="M72.9177 74.5206C72.8638 74.4885 72.8119 74.4531 72.7625 74.4145C72.8119 74.4531 72.8638 74.4885 72.9177 74.5206Z" fill="white"/>
<path d="M72.4003 74.0082C72.3893 73.9883 72.3798 73.9675 72.3719 73.9461C72.3453 73.898 72.3228 73.8478 72.3046 73.796C72.2604 73.6727 72.2342 73.5437 72.2269 73.413C72.2269 73.3871 72.214 73.3664 72.214 73.3405V73.6692L72.3537 73.9513C72.3744 73.9642 72.4003 73.9849 72.4003 74.0082Z" fill="white"/>
<path d="M72.4985 74.1428C72.5302 74.1913 72.5656 74.2371 72.6046 74.2799C72.5916 74.2639 72.5804 74.2466 72.571 74.2282C72.5447 74.2016 72.5205 74.173 72.4985 74.1428Z" fill="white"/>
<path d="M72.6047 74.2799L72.6203 74.3032C72.6179 74.2953 72.6134 74.2882 72.6073 74.2825L72.6047 74.2799Z" fill="white"/>
<path d="M72.4158 72.6599C72.4313 72.6341 72.452 72.6082 72.4701 72.5823C72.5106 72.5196 72.5556 72.4599 72.6047 72.4037C72.6202 72.3856 72.6409 72.3727 72.6591 72.3546C72.6772 72.3365 72.6953 72.3287 72.7134 72.3132C72.7884 72.2495 72.8699 72.194 72.9567 72.1475L72.9825 72.1294L73.0265 72.1087L73.0628 72.088L73.2672 71.9897H72.2321V73.0248L72.3718 72.7402C72.377 72.7117 72.4003 72.6884 72.4158 72.6599Z" fill="white"/>
<path d="M72.7133 72.3131C72.7885 72.2498 72.87 72.1943 72.9565 72.1475C72.8698 72.194 72.7883 72.2495 72.7133 72.3131Z" fill="white"/>
<path d="M72.6048 72.4037C72.5556 72.4599 72.5107 72.5196 72.4702 72.5823C72.4909 72.5513 72.5194 72.5228 72.5427 72.4943C72.566 72.4659 72.5789 72.4296 72.6048 72.4037Z" fill="white"/>
<path d="M72.2372 73.2526C72.2468 73.1319 72.2712 73.0128 72.3097 72.898C72.3318 72.8378 72.3577 72.779 72.3873 72.722C72.3873 72.7039 72.4054 72.6806 72.4158 72.6599C72.4003 72.6884 72.377 72.7117 72.3614 72.7428L72.2217 73.0274V73.3406C72.2217 73.3095 72.2372 73.2836 72.2372 73.2526Z" fill="white"/>
<path d="M73.0265 72.1165L73.0627 72.0958L73.0265 72.1165Z" fill="white"/>
<path d="M72.6279 72.3753H72.6589C72.6408 72.3934 72.6201 72.4063 72.6046 72.4245C72.589 72.4426 72.6046 72.4245 72.6201 72.4089L72.6279 72.3753Z" fill="white"/>
<path d="M72.2372 73.2526C72.2372 73.2836 72.2217 73.3095 72.2217 73.3405C72.2217 73.3716 72.2346 73.3871 72.2346 73.413C72.2346 73.3897 72.2346 73.369 72.2346 73.3457C72.2346 73.3224 72.2372 73.2836 72.2372 73.2526Z" fill="white"/>
<path d="M72.3199 73.8115V73.796C72.3381 73.8478 72.3606 73.8981 72.3872 73.9461C72.3618 73.9028 72.3393 73.8579 72.3199 73.8115Z" fill="white"/>
<path d="M72.3743 72.7557C72.3743 72.7557 72.3743 72.7324 72.3872 72.722C72.3576 72.779 72.3317 72.8378 72.3096 72.898C72.3096 72.898 72.3096 72.898 72.3096 72.8773C72.3284 72.8354 72.35 72.7948 72.3743 72.7557Z" fill="white"/>
<path d="M72.659 72.3753L72.6357 72.3934H72.6513L72.659 72.3753Z" fill="white"/>
<path d="M72.5814 72.4451C72.5995 72.4296 72.6047 72.4063 72.6203 72.3882C72.6358 72.3701 72.6203 72.3882 72.6047 72.4037C72.5892 72.4192 72.5659 72.4658 72.5426 72.4943L72.5814 72.4451Z" fill="white"/>
<path d="M72.4987 74.1428C72.4647 74.1006 72.4343 74.0556 72.4081 74.0082C72.4343 74.0556 72.4647 74.1006 72.4987 74.1428Z" fill="white"/>
<path d="M72.6591 74.3188C72.6964 74.3535 72.7362 74.3855 72.7781 74.4145L72.6953 74.3446C72.6828 74.3366 72.6707 74.328 72.6591 74.3188Z" fill="white"/>
<path d="M73.5234 74.6888C73.3855 74.6832 73.2493 74.6561 73.1197 74.6086C73.0705 74.5905 73.0291 74.5698 72.9851 74.5491L72.9204 74.5206C72.9437 74.5206 72.9618 74.5517 72.9825 74.562L73.2672 74.7018H73.5803C73.5611 74.6984 73.5421 74.6941 73.5234 74.6888Z" fill="white"/>
<path d="M73.5235 74.6888C73.3855 74.6838 73.2492 74.6567 73.1198 74.6086C73.2494 74.6561 73.3855 74.6832 73.5235 74.6888Z" fill="white"/>
<path d="M72.3123 73.796C72.2678 73.6728 72.2417 73.5438 72.2346 73.413C72.2419 73.5438 72.2681 73.6728 72.3123 73.796Z" fill="white"/>
<path d="M72.3795 73.9461C72.3874 73.9675 72.3969 73.9883 72.408 74.0082C72.4342 74.0556 72.4646 74.1006 72.4986 74.1428C72.5205 74.173 72.5448 74.2016 72.571 74.2282C72.4953 74.1428 72.4309 74.048 72.3795 73.9461Z" fill="white"/>
<path d="M72.7652 74.4145C72.8147 74.4531 72.8665 74.4885 72.9205 74.5206L72.9852 74.5491C72.876 74.494 72.7743 74.4253 72.6824 74.3446L72.7652 74.4145Z" fill="white"/>
<path d="M72.7134 72.3132C72.6953 72.3287 72.6746 72.3391 72.6591 72.3546H72.6746L72.7134 72.3132Z" fill="white"/>
<path d="M73.1067 72.0803C73.2471 72.0251 73.3959 71.9945 73.5467 71.9897H73.2672L73.0627 72.088C73.0783 72.0829 73.0938 72.0854 73.1067 72.0803Z" fill="white"/>
<path d="M72.4158 72.66C72.4324 72.6331 72.4505 72.6071 72.4701 72.5823C72.452 72.6082 72.4313 72.6341 72.4158 72.66Z" fill="white"/>
<path d="M73.0264 72.1165L72.9824 72.1372L72.9565 72.1553L72.9876 72.1398C73.0005 72.1165 73.0109 72.1165 73.0264 72.1165Z" fill="white"/>
<path d="M72.9877 72.132L72.9566 72.1475C72.8701 72.1943 72.7886 72.2498 72.7134 72.3132L72.6746 72.3442C72.769 72.2599 72.8743 72.1885 72.9877 72.132Z" fill="white"/>
<path d="M72.2372 73.2526C72.2466 73.1318 72.2709 73.0127 72.3096 72.898C72.2712 73.0128 72.2468 73.1319 72.2372 73.2526Z" fill="white"/>
<path d="M72.47 72.5823C72.4504 72.6071 72.4323 72.6331 72.4157 72.66C72.4157 72.6807 72.3976 72.7039 72.3872 72.7221C72.4305 72.6407 72.4826 72.5643 72.5425 72.4943C72.5192 72.5228 72.4907 72.5513 72.47 72.5823Z" fill="white"/>
<path d="M73.557 71.9897C73.4063 71.9945 73.2575 72.0251 73.1171 72.0803C73.2576 72.0258 73.4063 71.9952 73.557 71.9897Z" fill="white"/>
<path d="M73.0213 72.1165L73.0834 72.088H73.1067C73.0938 72.088 73.0782 72.088 73.0627 72.088L73.0265 72.1087C73.011 72.1087 73.0006 72.1268 72.9877 72.132L73.0213 72.1165Z" fill="white"/>
<path d="M73.0214 72.1165L72.9877 72.1294C72.8743 72.1859 72.769 72.2573 72.6746 72.3416L72.6591 72.3753C72.764 72.2687 72.8865 72.1812 73.0214 72.1165Z" fill="white"/>
<path d="M72.5813 72.4451L72.5425 72.4943C72.4826 72.5643 72.4305 72.6407 72.3872 72.722C72.3872 72.722 72.3872 72.7453 72.3743 72.7557C72.4283 72.6429 72.498 72.5384 72.5813 72.4451Z" fill="white"/>
<path d="M72.5814 74.2411C72.499 74.1506 72.4302 74.0486 72.377 73.9383C72.4283 74.0402 72.4927 74.135 72.5685 74.2204C72.5687 74.2247 72.5701 74.2288 72.5723 74.2324C72.5746 74.236 72.5777 74.239 72.5814 74.2411Z" fill="white"/>
<path d="M72.32 72.8773C72.32 72.8773 72.32 72.8903 72.32 72.898C72.2813 73.0127 72.2569 73.1318 72.2476 73.2526C72.2476 73.2836 72.2346 73.3147 72.2346 73.3457C72.2351 73.1858 72.264 73.0272 72.32 72.8773Z" fill="white"/>
<path d="M73.5802 71.9897H73.557C73.4028 71.994 73.2505 72.0246 73.1067 72.0803H73.0834C73.2418 72.0189 73.4104 71.9881 73.5802 71.9897Z" fill="white"/>
<path d="M72.2243 73.3457C72.2243 73.369 72.2243 73.3897 72.2243 73.413C72.2313 73.5438 72.2575 73.6728 72.3019 73.796V73.8115C72.2483 73.6622 72.222 73.5044 72.2243 73.3457Z" fill="white"/>
<path d="M72.6202 74.3033L72.6461 74.3188L72.6202 74.3033Z" fill="white"/>
<path d="M72.6306 74.3006L72.6073 74.2825C72.6134 74.2882 72.6178 74.2953 72.6202 74.3032L72.6435 74.3162L72.6306 74.3006Z" fill="white"/>
<path d="M72.6279 72.3753C72.6124 72.3934 72.6072 72.4167 72.5891 72.4322C72.6124 72.4089 72.6279 72.383 72.6512 72.3597L72.6279 72.3753Z" fill="white"/>
<path d="M72.3199 72.8773C72.3354 72.8356 72.3536 72.795 72.3743 72.7557C72.3536 72.795 72.3354 72.8356 72.3199 72.8773Z" fill="white"/>
<path d="M72.6072 74.2825L72.6305 74.3006C72.6127 74.282 72.5963 74.2621 72.5813 74.2411C72.5917 74.2541 72.5968 74.2696 72.6072 74.2825Z" fill="white"/>
<path d="M72.3769 73.928C72.3553 73.887 72.3363 73.8446 72.3199 73.8012C72.3363 73.8446 72.3553 73.887 72.3769 73.928Z" fill="white"/>
<path d="M74.4706 74.3421L74.4214 74.3809C74.4499 74.3576 74.4861 74.3447 74.512 74.3188L74.5275 74.3033C74.5145 74.3188 74.4938 74.3265 74.4706 74.3421Z" fill="white"/>
<path d="M72.6745 74.3395C72.6745 74.3395 72.6512 74.3395 72.6434 74.3162C72.6551 74.3254 72.6672 74.334 72.6797 74.342L72.6745 74.3395Z" fill="white"/>
<path d="M74.5431 74.2903L74.556 74.2722C74.556 74.2722 74.5457 74.2877 74.5431 74.2903Z" fill="white"/>
<path d="M73.5233 74.6888C73.5421 74.6941 73.5611 74.6984 73.5802 74.7018C73.6113 74.7018 73.6346 74.6862 73.6631 74.6862C73.6346 74.6862 73.6061 74.6862 73.5777 74.6862L73.5233 74.6888Z" fill="white"/>
<path d="M72.9877 74.5491C73.0317 74.5698 73.0731 74.5905 73.1222 74.6086C73.076 74.5922 73.031 74.5723 72.9877 74.5491Z" fill="white"/>
<path d="M74.0462 74.6034H74.0255C74.0856 74.5829 74.1436 74.557 74.1989 74.5258L74.1653 74.5413L74.0462 74.6034Z" fill="white"/>
<path d="M72.6746 74.3395C72.7664 74.4201 72.8682 74.4888 72.9773 74.5439C72.868 74.4892 72.7662 74.4205 72.6746 74.3395Z" fill="white"/>
<path d="M73.5778 74.7044C73.6062 74.7044 73.6347 74.7044 73.6632 74.7044C73.7868 74.6964 73.9088 74.6711 74.0255 74.6293H74.0462C73.8957 74.6818 73.7371 74.7072 73.5778 74.7044Z" fill="white"/>
<path d="M74.556 74.2722C74.566 74.2631 74.5747 74.2526 74.5819 74.2411C74.6643 74.1506 74.7331 74.0486 74.7864 73.9384C74.7926 73.9277 74.7978 73.9164 74.8019 73.9047C74.7373 74.0427 74.6498 74.1687 74.5431 74.2774L74.556 74.2722Z" fill="white"/>
<path d="M74.4706 74.342C74.3767 74.4245 74.2722 74.4941 74.16 74.5491L74.1937 74.5335C74.275 74.4912 74.3513 74.44 74.4214 74.3809L74.4706 74.342Z" fill="white"/>
<path d="M74.9337 73.3405C74.9312 73.5102 74.897 73.6778 74.8328 73.8348C74.8332 73.8271 74.8332 73.8193 74.8328 73.8115C74.8884 73.6704 74.919 73.5207 74.9233 73.369L74.9337 73.3405Z" fill="white"/>
<path d="M73.1067 74.6008C73.2361 74.6489 73.3724 74.676 73.5104 74.6811H73.5647C73.4085 74.6822 73.2533 74.655 73.1067 74.6008Z" fill="white"/>
<path d="M73.1067 74.6008C73.0659 74.5862 73.0262 74.569 72.9877 74.5491C73.0262 74.569 73.0659 74.5862 73.1067 74.6008Z" fill="white"/>
<path d="M72.6434 74.3162C72.6434 74.3162 72.6667 74.3291 72.6745 74.3395L72.6305 74.3007L72.6434 74.3162Z" fill="white"/>
<path d="M74.1652 74.5491C74.1264 74.5672 74.0875 74.5879 74.0461 74.6034L74.1652 74.5491Z" fill="white"/>
<path d="M74.4706 74.342C74.4887 74.3265 74.5094 74.3188 74.5275 74.3032C74.5264 74.299 74.5264 74.2945 74.5275 74.2903C74.5275 74.2903 74.5275 74.2903 74.5275 74.2903C74.5275 74.2903 74.499 74.3188 74.4706 74.342Z" fill="white"/>
<path d="M74.9337 73.3405V73.3224C74.9289 73.1692 74.8982 73.0178 74.8431 72.8747V72.8592C74.9024 73.0128 74.9331 73.1759 74.9337 73.3405Z" fill="white"/>
<path d="M74.7888 72.7557C74.7348 72.6423 74.6642 72.5376 74.5792 72.4451C74.6705 72.5445 74.7464 72.6571 74.8044 72.779L74.7888 72.7557Z" fill="white"/>
<path d="M74.059 72.0854L74.1625 72.132L74.059 72.0854Z" fill="white"/>
<path d="M73.0212 72.1165L73.0834 72.088L73.0212 72.1165Z" fill="white"/>
<path d="M74.5198 72.3753C74.5198 72.3753 74.4939 72.3597 74.481 72.3494C74.5002 72.3635 74.5184 72.3791 74.5353 72.396L74.5198 72.3753Z" fill="white"/>
<path d="M73.0213 72.1165C72.881 72.1796 72.753 72.2672 72.6435 72.3753C72.6202 72.3986 72.6047 72.4244 72.5814 72.4477C72.4981 72.541 72.4284 72.6455 72.3743 72.7583C72.3536 72.7976 72.3355 72.8382 72.32 72.8799C72.2605 73.0291 72.2281 73.1877 72.2242 73.3483C72.2278 73.5081 72.2602 73.6659 72.32 73.8141C72.3363 73.8575 72.3553 73.8999 72.3769 73.9409C72.4301 74.0512 72.499 74.1532 72.5814 74.2437C72.5963 74.2647 72.6128 74.2846 72.6305 74.3032L72.6745 74.3421C72.7691 74.4256 72.8744 74.4961 72.9877 74.5517C73.0261 74.5716 73.0659 74.5888 73.1067 74.6034C73.2564 74.6645 73.4161 74.697 73.5777 74.6992C73.7381 74.6962 73.8968 74.6647 74.0461 74.606C74.0875 74.5905 74.1263 74.5698 74.1652 74.5517C74.2774 74.4967 74.3818 74.4271 74.4757 74.3446C74.499 74.3213 74.5275 74.3032 74.5507 74.2799C74.6574 74.1712 74.7449 74.0452 74.8095 73.9073C74.8095 73.884 74.8302 73.8633 74.8406 73.8374C74.9063 73.6832 74.9402 73.5173 74.9402 73.3496C74.9402 73.182 74.9063 73.016 74.8406 72.8618C74.8276 72.8307 74.8147 72.7997 74.7992 72.7686C74.7412 72.6467 74.6653 72.5342 74.574 72.4348L74.5404 72.396C74.5235 72.3791 74.5053 72.3635 74.486 72.3494C74.3903 72.2635 74.2832 72.1913 74.1677 72.1346L74.0642 72.088C73.9098 72.0232 73.7439 71.9898 73.5764 71.9898C73.4089 71.9898 73.2431 72.0232 73.0886 72.088L73.0213 72.1165Z" fill="white"/>
<path d="M24.6281 120.989C25.1456 120.989 25.6347 121.02 26.1187 121.066C25.7098 116.799 23.6473 113.582 22.374 111.965V120.989H24.6281Z" fill="white"/>
<path d="M20.34 120.989V111.97C19.0642 113.585 17.0042 116.801 16.5953 121.069C17.0767 121.022 17.5736 120.991 18.0834 120.991L20.34 120.989Z" fill="white"/>
<path d="M22.374 130.67V139.694C23.6473 138.079 25.7098 134.862 26.1187 130.592C25.6347 130.639 25.1405 130.67 24.6281 130.67H22.374Z" fill="white"/>
<path d="M18.0834 130.67C17.5658 130.67 17.0793 130.639 16.5953 130.592C17.0042 134.86 19.0642 138.076 20.34 139.691V130.67H18.0834Z" fill="white"/>
<path d="M26.1963 122.557V124.723H30.0523V124.813H35.228C33.6132 123.54 30.3965 121.478 26.1265 121.066C26.1653 121.545 26.1963 122.047 26.1963 122.557Z" fill="white"/>
<path d="M16.5151 126.757H7.37988C8.95331 128.02 12.2218 130.173 16.5953 130.592C16.5434 130.097 16.5166 129.599 16.5151 129.102V126.757Z" fill="white"/>
<path d="M26.1963 129.102C26.1963 129.619 26.1652 130.108 26.1187 130.592C30.3861 130.183 33.6028 128.121 35.2176 126.847H26.1963V129.102Z" fill="white"/>
<path d="M16.515 122.557C16.5166 122.059 16.5434 121.561 16.5952 121.066C12.4288 121.467 9.25861 123.442 7.60754 124.723H16.515V122.557Z" fill="white"/>
<path d="M16.5151 124.723H19.0461C19.3135 124.164 19.7727 123.719 20.34 123.47V120.988H18.0834C17.5658 120.988 17.0767 121.02 16.5954 121.066C16.5435 121.561 16.5167 122.059 16.5151 122.557V124.723Z" fill="white"/>
<path d="M20.34 130.67V128.188C20.0274 128.053 19.7449 127.856 19.5089 127.611C19.273 127.365 19.0884 127.075 18.9659 126.757H16.5151V129.102C16.5167 129.599 16.5434 130.097 16.5954 130.592C17.0793 130.639 17.5736 130.67 18.0834 130.67H20.34Z" fill="white"/>
<path d="M26.1963 126.847H23.7145C23.4539 127.449 22.9748 127.929 22.374 128.191V130.67H24.6281C25.1456 130.67 25.6347 130.639 26.1187 130.592C26.1653 130.108 26.1963 129.611 26.1963 129.102V126.847Z" fill="white"/>
<path d="M22.374 120.988V123.47C22.9424 123.718 23.402 124.163 23.668 124.723H26.1989V122.557C26.1989 122.039 26.1678 121.553 26.1213 121.066C25.6373 121.02 25.143 120.988 24.6307 120.988H22.374Z" fill="white"/>
<path d="M20.3399 126.757H18.9657C19.0882 127.075 19.2728 127.365 19.5088 127.611C19.7447 127.856 20.0272 128.053 20.3399 128.188V126.757Z" fill="white"/>
<path d="M22.374 128.191C22.9748 127.929 23.4539 127.449 23.7145 126.847H22.374V128.191Z" fill="white"/>
<path d="M22.374 123.47V124.723H23.668C23.402 124.163 22.9424 123.718 22.374 123.47Z" fill="white"/>
<path d="M20.34 123.47C19.7726 123.719 19.3135 124.164 19.046 124.723H20.34V123.47Z" fill="white"/>
<path d="M127.17 120.988H129.499C130.017 120.988 130.506 121.02 130.99 121.066C130.573 116.716 128.438 113.458 127.173 111.877V120.988H127.17Z" fill="white"/>
<path d="M122.952 130.67C122.434 130.67 121.948 130.639 121.464 130.592C121.865 134.777 123.858 137.957 125.136 139.601V130.67H122.952Z" fill="white"/>
<path d="M122.952 120.989H125.136V112.058C123.858 113.701 121.865 116.882 121.464 121.066C121.948 121.027 122.442 120.989 122.952 120.989Z" fill="white"/>
<path d="M127.17 130.67V139.784C128.436 138.203 130.571 134.945 130.987 130.592C130.503 130.639 130.009 130.67 129.497 130.67H127.17Z" fill="white"/>
<path d="M121.384 126.847H112.362C113.977 128.121 117.194 130.183 121.464 130.592C121.412 130.097 121.385 129.599 121.384 129.102V126.847Z" fill="white"/>
<path d="M121.384 124.723V122.557C121.385 122.059 121.412 121.561 121.464 121.066C117.196 121.475 113.977 123.538 112.362 124.813H117.458V124.723H121.384Z" fill="white"/>
<path d="M131.067 124.723H139.977C138.324 123.444 135.154 121.467 130.987 121.066C131.034 121.553 131.067 122.047 131.067 122.557V124.723Z" fill="white"/>
<path d="M131.067 129.102C131.067 129.619 131.034 130.108 130.987 130.592C135.358 130.173 138.624 128.02 140.2 126.757H131.067V129.102Z" fill="white"/>
<path d="M125.136 130.67V128.149C124.57 127.886 124.118 127.426 123.865 126.855H121.384V129.109C121.385 129.607 121.412 130.105 121.464 130.6C121.948 130.646 122.442 130.678 122.952 130.678L125.136 130.67Z" fill="white"/>
<path d="M127.17 120.988V123.444C127.769 123.685 128.256 124.141 128.536 124.723H131.067V122.557C131.067 122.039 131.034 121.553 130.987 121.066C130.503 121.02 130.009 120.988 129.497 120.988H127.17Z" fill="white"/>
<path d="M131.067 126.757H128.617C128.488 127.086 128.293 127.385 128.044 127.636C127.796 127.887 127.498 128.085 127.17 128.216V130.67H129.499C130.017 130.67 130.506 130.639 130.99 130.592C131.036 130.108 131.07 129.611 131.07 129.102L131.067 126.757Z" fill="white"/>
<path d="M121.384 124.723H123.915C124.169 124.189 124.601 123.76 125.136 123.509V120.988H122.952C122.434 120.988 121.948 121.02 121.464 121.066C121.412 121.561 121.385 122.059 121.384 122.557V124.723Z" fill="white"/>
<path d="M128.536 124.723C128.256 124.141 127.769 123.685 127.17 123.444V124.723H128.536Z" fill="white"/>
<path d="M127.17 126.847V128.216C127.498 128.085 127.796 127.887 128.044 127.636C128.293 127.385 128.488 127.086 128.617 126.757H127.17V126.847Z" fill="white"/>
<path d="M123.865 126.847C124.118 127.419 124.569 127.879 125.136 128.141V126.847H123.865Z" fill="white"/>
<path d="M123.915 124.723H125.136V123.509C124.601 123.76 124.169 124.189 123.915 124.723Z" fill="white"/>
<path d="M20.34 16.2002V7.17633C19.0642 8.79375 17.0042 12.0105 16.5953 16.2779C17.0767 16.2313 17.5736 16.2002 18.0834 16.2002H20.34Z" fill="white"/>
<path d="M24.6281 25.8815H22.374V34.9054C23.6473 33.2906 25.7098 30.0713 26.1187 25.8039C25.6347 25.8504 25.1405 25.8815 24.6281 25.8815Z" fill="white"/>
<path d="M18.0834 25.8815C17.5658 25.8815 17.0767 25.8504 16.5953 25.8039C17.0042 30.0687 19.0642 33.2854 20.34 34.9028V25.8815H18.0834Z" fill="white"/>
<path d="M24.6281 16.2002C25.1456 16.2002 25.6347 16.2313 26.1187 16.2779C25.7098 12.0105 23.6473 8.79375 22.374 7.17633V16.2002H24.6281Z" fill="white"/>
<path d="M16.5151 21.9609H7.36951C8.94035 23.2238 12.214 25.382 16.5953 25.8039C16.5434 25.3087 16.5166 24.8112 16.5151 24.3133V21.9609Z" fill="white"/>
<path d="M26.1187 25.7935C30.3938 25.3821 33.6235 23.3143 35.228 22.0411H26.1963V24.3029C26.1963 24.8231 26.1652 25.3174 26.1187 25.7935Z" fill="white"/>
<path d="M16.5151 17.7711C16.5165 17.2732 16.5433 16.7757 16.5953 16.2805C12.4392 16.679 9.2716 18.6484 7.61536 19.9294H16.5151V17.7711Z" fill="white"/>
<path d="M26.1963 19.9268H30.0522V20.0174H35.2099C33.5924 18.7415 30.3783 16.6868 26.1187 16.2779C26.1652 16.7618 26.1963 17.2561 26.1963 17.7685V19.9268Z" fill="white"/>
<path d="M26.1187 25.7935C26.1653 25.307 26.1963 24.8127 26.1963 24.3029V22.0411H23.7171C23.4569 22.6448 22.9767 23.1269 22.374 23.3894V25.8712H24.6281C25.1405 25.8815 25.6347 25.8505 26.1187 25.7935Z" fill="white"/>
<path d="M20.34 25.8815V23.3997C20.0269 23.2627 19.744 23.065 19.5077 22.818C19.2714 22.5711 19.0864 22.2797 18.9633 21.9609H16.5151V24.3133C16.5167 24.8112 16.5435 25.3087 16.5954 25.8039C17.0767 25.8505 17.5736 25.8815 18.0834 25.8815H20.34Z" fill="white"/>
<path d="M16.5151 19.9268H19.0513C19.3189 19.3698 19.7782 18.9279 20.3452 18.682V16.2003H18.0886C17.571 16.2003 17.0819 16.2313 16.6005 16.2779C16.5485 16.7731 16.5218 17.2706 16.5203 17.7685L16.5151 19.9268Z" fill="white"/>
<path d="M22.374 16.2003V18.682C22.941 18.9279 23.4003 19.3698 23.668 19.9268H26.2015V17.7711C26.2015 17.2535 26.1704 16.7644 26.1239 16.2805C25.6399 16.2339 25.1456 16.2028 24.6332 16.2028L22.374 16.2003Z" fill="white"/>
<path d="M18.9631 21.9609C19.0862 22.2797 19.2713 22.5711 19.5076 22.818C19.7439 23.065 20.0268 23.2627 20.3399 23.3997V21.9609H18.9631Z" fill="white"/>
<path d="M20.34 18.682C19.773 18.9279 19.3136 19.3698 19.046 19.9268H20.34V18.682Z" fill="white"/>
<path d="M23.6628 19.9268C23.3952 19.3698 22.9358 18.9279 22.3689 18.682V19.9268H23.6628Z" fill="white"/>
<path d="M22.374 23.3997C22.9767 23.1372 23.4569 22.6552 23.7171 22.0515H22.374V23.3997Z" fill="white"/>
<path d="M125.136 16.2002V7.26691C123.858 8.9128 121.862 12.0933 121.464 16.2779C121.948 16.2313 122.442 16.2002 122.952 16.2002H125.136Z" fill="white"/>
<path d="M127.17 25.8815V34.996C128.436 33.4122 130.571 30.1567 130.987 25.8039C130.503 25.8504 130.009 25.8815 129.497 25.8815H127.17Z" fill="white"/>
<path d="M121.464 25.7935C121.865 29.9755 123.858 33.156 125.136 34.8019V25.8815H122.952C122.442 25.8815 121.948 25.8505 121.464 25.7935Z" fill="white"/>
<path d="M129.497 16.2002C130.014 16.2002 130.503 16.2313 130.987 16.2779C130.571 11.9277 128.436 8.66953 127.17 7.08575V16.2002H129.497Z" fill="white"/>
<path d="M121.383 24.3133V22.0515H112.352C113.964 23.3247 117.186 25.3924 121.464 25.8039C121.412 25.3087 121.385 24.8112 121.383 24.3133Z" fill="white"/>
<path d="M117.458 19.9268H121.383V17.7711C121.385 17.2732 121.412 16.7757 121.464 16.2805C117.201 16.6894 113.99 18.7441 112.37 20.02H117.458V19.9268Z" fill="white"/>
<path d="M131.067 24.3133C131.067 24.8308 131.034 25.3173 130.987 25.8039C135.368 25.382 138.639 23.216 140.208 21.9609H131.067V24.3133Z" fill="white"/>
<path d="M131.067 19.9268H139.967C138.311 18.6329 135.146 16.6764 130.987 16.2779C131.034 16.7618 131.067 17.2561 131.067 17.7685V19.9268Z" fill="white"/>
<path d="M123.86 22.0515H121.384V24.3133C121.385 24.8112 121.412 25.3087 121.464 25.8039C121.948 25.8505 122.442 25.8815 122.952 25.8815H125.136V23.3609C124.566 23.0942 124.112 22.6286 123.86 22.0515Z" fill="white"/>
<path d="M121.384 19.9268H123.917C124.173 19.3969 124.603 18.9711 125.136 18.7208V16.2003H122.952C122.434 16.2003 121.948 16.2313 121.464 16.2779C121.412 16.7731 121.385 17.2706 121.384 17.7685V19.9268Z" fill="white"/>
<path d="M127.17 16.2003V18.6561C127.767 18.894 128.253 19.3475 128.531 19.9268H131.067V17.7711C131.067 17.2535 131.034 16.7644 130.987 16.2805C130.503 16.2339 130.009 16.2028 129.497 16.2028L127.17 16.2003Z" fill="white"/>
<path d="M131.067 21.9609H128.619C128.491 22.2913 128.296 22.5917 128.047 22.8437C127.797 23.0957 127.499 23.2937 127.17 23.4256V25.8815H129.499C130.017 25.8815 130.506 25.8505 130.99 25.8039C131.036 25.3174 131.07 24.8231 131.07 24.3133L131.067 21.9609Z" fill="white"/>
<path d="M128.531 19.9268C128.253 19.3475 127.767 18.894 127.17 18.6562V19.9268H128.531Z" fill="white"/>
<path d="M125.136 18.7209C124.603 18.9711 124.173 19.3969 123.917 19.9268H125.136V18.7209Z" fill="white"/>
<path d="M125.136 23.3609V22.0515H123.86C124.112 22.6286 124.566 23.0942 125.136 23.3609Z" fill="white"/>
<path d="M127.17 23.4256C127.499 23.2937 127.797 23.0957 128.047 22.8437C128.296 22.5917 128.491 22.2913 128.619 21.9609H127.17V23.4256Z" fill="white"/>
<path d="M126.228 36.0674C125.838 35.6727 125.474 35.2535 125.139 34.8123V72.22C125.212 72.2635 125.28 72.3147 125.343 72.3727C125.366 72.396 125.382 72.4218 125.403 72.4451C125.487 72.5382 125.559 72.6427 125.615 72.7557C125.633 72.7971 125.651 72.8333 125.666 72.8747C125.726 73.0249 125.758 73.1843 125.762 73.3457C125.758 73.5054 125.726 73.6632 125.666 73.8115C125.651 73.8549 125.633 73.8973 125.612 73.9383C125.558 74.048 125.489 74.1499 125.408 74.2411C125.387 74.2682 125.364 74.2941 125.34 74.3188C125.278 74.3761 125.211 74.4273 125.139 74.4714V112.058C125.474 111.617 125.838 111.197 126.228 110.803C126.563 111.143 126.878 111.501 127.173 111.877V34.996C126.878 35.3704 126.563 35.728 126.228 36.0674Z" fill="white"/>
<path d="M36.3823 21.0396C36.0179 21.3994 35.6325 21.7373 35.2281 22.0514H72.2968L72.3615 21.922C72.4237 21.7966 72.5059 21.6821 72.6048 21.583C72.6269 21.5618 72.6502 21.542 72.6746 21.5235C72.7691 21.4391 72.8744 21.3678 72.9878 21.3113C73.0292 21.2932 73.0628 21.2751 73.1068 21.2596C73.2553 21.1964 73.4151 21.1639 73.5765 21.1639C73.7379 21.1639 73.8976 21.1964 74.0462 21.2596C74.087 21.275 74.1268 21.2932 74.1652 21.3139C74.278 21.3679 74.3825 21.4376 74.4758 21.5209C74.4991 21.5442 74.5275 21.5597 74.5508 21.583C74.6497 21.6821 74.7319 21.7966 74.7941 21.922L74.8562 22.0514H112.352C111.949 21.7367 111.563 21.3998 111.198 21.0422C111.567 20.6738 111.959 20.3281 112.37 20.007H35.21C35.6208 20.3278 36.0122 20.6726 36.3823 21.0396Z" fill="white"/>
<path d="M111.198 125.83C111.565 125.468 111.954 125.129 112.362 124.813H74.7578C74.7008 124.917 74.6312 125.014 74.5508 125.101C74.5275 125.124 74.499 125.139 74.4757 125.163C74.3825 125.246 74.2779 125.316 74.1652 125.37C74.1267 125.391 74.087 125.409 74.0461 125.424C73.7453 125.548 73.4076 125.548 73.1067 125.424C73.0659 125.409 73.0261 125.391 72.9877 125.37C72.8739 125.315 72.7684 125.245 72.6746 125.16C72.6501 125.142 72.6268 125.122 72.6047 125.101C72.5226 125.014 72.4521 124.918 72.3951 124.813H35.2202C35.6278 125.128 36.0158 125.466 36.3822 125.828C36.0147 126.191 35.6258 126.531 35.2177 126.847H112.362C111.954 126.532 111.565 126.193 111.198 125.83Z" fill="white"/>
<path d="M21.357 110.803C21.7189 111.169 22.0585 111.557 22.374 111.965V74.6655L22.1618 74.562C22.0371 74.4986 21.9228 74.4166 21.8228 74.3188C21.7995 74.2955 21.7814 74.267 21.7581 74.2411C21.6766 74.1499 21.6078 74.048 21.5537 73.9383C21.5329 73.8973 21.5148 73.8549 21.4993 73.8115C21.4362 73.6639 21.4036 73.505 21.4036 73.3444C21.4036 73.1838 21.4362 73.0249 21.4993 72.8773C21.5149 72.8333 21.533 72.7971 21.5511 72.7557C21.607 72.6434 21.6775 72.539 21.7607 72.4451C21.784 72.4218 21.7995 72.396 21.8228 72.3727C21.9223 72.2743 22.0367 72.1922 22.1618 72.1294L22.374 72.0259V34.9054C22.0585 35.3127 21.7189 35.7007 21.357 36.0674C20.9956 35.6993 20.656 35.3105 20.34 34.9028V111.97C20.6541 111.56 20.9938 111.17 21.357 110.803Z" fill="white"/>
<path d="M74.5508 125.101C74.6313 125.014 74.7008 124.917 74.7578 124.813H74.7449C74.6917 124.916 74.6266 125.013 74.5508 125.101Z" fill="white"/>
<path d="M72.9877 125.37C72.8739 125.315 72.7684 125.245 72.6746 125.16C72.7684 125.245 72.8739 125.315 72.9877 125.37Z" fill="white"/>
<path d="M74.4706 125.168C74.3773 125.251 74.2728 125.321 74.16 125.375C74.2728 125.321 74.3773 125.251 74.4706 125.168Z" fill="white"/>
<path d="M74.0462 125.427C73.8968 125.485 73.7382 125.517 73.5778 125.52C73.7381 125.516 73.8967 125.485 74.0462 125.427Z" fill="white"/>
<path d="M73.5777 125.517C73.4164 125.515 73.2569 125.483 73.1067 125.424C73.2569 125.483 73.4164 125.514 73.5777 125.517Z" fill="white"/>
<path d="M72.4003 124.813C72.4573 124.918 72.5278 125.014 72.6099 125.101C72.5333 125.013 72.4673 124.917 72.4132 124.813H72.4003Z" fill="white"/>
<path d="M74.1652 125.37C74.1264 125.388 74.0875 125.409 74.0461 125.424C74.087 125.409 74.1268 125.39 74.1652 125.37Z" fill="white"/>
<path d="M72.6746 125.168C72.6502 125.149 72.6268 125.13 72.6047 125.108C72.6268 125.13 72.6502 125.149 72.6746 125.168Z" fill="white"/>
<path d="M74.5508 125.101C74.5275 125.124 74.499 125.139 74.4757 125.163C74.499 125.139 74.5275 125.124 74.5508 125.101Z" fill="white"/>
<path d="M73.1067 125.427C73.0659 125.411 73.0261 125.393 72.9877 125.372C73.0261 125.393 73.0659 125.411 73.1067 125.427Z" fill="white"/>
<path d="M72.4003 124.813C72.4543 124.917 72.5203 125.013 72.5969 125.101C72.619 125.122 72.6424 125.142 72.6668 125.16C72.7607 125.245 72.8661 125.315 72.98 125.37C73.0184 125.391 73.0582 125.409 73.099 125.424C73.3998 125.548 73.7376 125.548 74.0384 125.424C74.0798 125.409 74.1186 125.388 74.1574 125.37C74.2702 125.316 74.3747 125.246 74.468 125.163C74.4913 125.139 74.5197 125.124 74.543 125.101C74.6188 125.013 74.684 124.916 74.7371 124.813H72.4003Z" fill="white"/>
<path d="M73.1067 21.2596C73.2567 21.1998 73.4162 21.1674 73.5777 21.1638C73.4161 21.1663 73.2564 21.1988 73.1067 21.2596Z" fill="white"/>
<path d="M72.6746 21.5235C72.769 21.4391 72.8743 21.3678 72.9877 21.3113C72.8743 21.3678 72.769 21.4391 72.6746 21.5235Z" fill="white"/>
<path d="M73.5778 21.1638C73.7383 21.1676 73.897 21.2001 74.0462 21.2596C73.8972 21.1993 73.7384 21.1669 73.5778 21.1638Z" fill="white"/>
<path d="M74.1652 21.3139C74.2779 21.3679 74.3825 21.4376 74.4757 21.5209C74.3825 21.4376 74.2779 21.3679 74.1652 21.3139Z" fill="white"/>
<path d="M72.6047 21.583C72.5058 21.6821 72.4237 21.7966 72.3615 21.922L72.2968 22.0514H72.3149C72.3772 21.8765 72.476 21.7169 72.6047 21.583Z" fill="white"/>
<path d="M74.8562 22.0514L74.794 21.922C74.7318 21.7966 74.6497 21.6821 74.5508 21.583C74.6779 21.7177 74.7757 21.8771 74.838 22.0514H74.8562Z" fill="white"/>
<path d="M74.4706 21.5209C74.4939 21.5442 74.5223 21.5598 74.5456 21.583C74.5275 21.5598 74.499 21.5442 74.4706 21.5209Z" fill="white"/>
<path d="M74.0461 21.2596C74.087 21.275 74.1268 21.2932 74.1652 21.3139C74.1268 21.2932 74.087 21.275 74.0461 21.2596Z" fill="white"/>
<path d="M72.9877 21.3113L73.1067 21.2596C73.0627 21.2751 73.0291 21.2932 72.9877 21.3113Z" fill="white"/>
<path d="M72.6047 21.583C72.6268 21.5618 72.6502 21.542 72.6746 21.5235C72.6502 21.542 72.6268 21.5618 72.6047 21.583Z" fill="white"/>
<path d="M74.838 22.0514C74.7756 21.8771 74.6778 21.7177 74.5507 21.583C74.5274 21.5597 74.499 21.5442 74.4757 21.5209C74.3824 21.4376 74.2779 21.3679 74.1651 21.3139C74.1267 21.2932 74.0869 21.275 74.0461 21.2596C73.8976 21.1964 73.7378 21.1639 73.5764 21.1639C73.415 21.1639 73.2553 21.1964 73.1067 21.2596L72.9877 21.3113C72.8743 21.3678 72.769 21.4391 72.6745 21.5235C72.6501 21.542 72.6268 21.5618 72.6047 21.583C72.4759 21.7169 72.3771 21.8765 72.3148 22.0514H74.838Z" fill="white"/>
<path d="M125.4 72.4451C125.485 72.5382 125.556 72.6427 125.612 72.7557C125.556 72.6427 125.485 72.5382 125.4 72.4451Z" fill="white"/>
<path d="M125.136 74.4714C125.208 74.4273 125.276 74.3761 125.338 74.3188C125.275 74.3712 125.208 74.4171 125.136 74.4559V74.4714Z" fill="white"/>
<path d="M125.34 72.3753C125.278 72.3173 125.209 72.2661 125.136 72.2226V72.2381C125.208 72.2775 125.277 72.3234 125.34 72.3753Z" fill="white"/>
<path d="M125.664 72.8747C125.723 73.0248 125.756 73.1843 125.76 73.3457C125.756 73.1843 125.723 73.0249 125.664 72.8747Z" fill="white"/>
<path d="M125.61 73.928C125.555 74.0372 125.486 74.1389 125.405 74.2308C125.487 74.1396 125.555 74.0377 125.61 73.928Z" fill="white"/>
<path d="M125.76 73.3457C125.756 73.5055 125.724 73.6633 125.664 73.8115C125.723 73.6632 125.756 73.5055 125.76 73.3457Z" fill="white"/>
<path d="M125.664 73.8115C125.648 73.8549 125.63 73.8972 125.609 73.9383C125.63 73.8972 125.648 73.8549 125.664 73.8115Z" fill="white"/>
<path d="M125.34 72.3753C125.364 72.3986 125.379 72.4244 125.4 72.4477C125.379 72.4219 125.364 72.396 125.34 72.3753Z" fill="white"/>
<path d="M125.612 72.7557C125.63 72.7945 125.648 72.8359 125.664 72.8747C125.648 72.8333 125.63 72.7971 125.612 72.7557Z" fill="white"/>
<path d="M125.405 74.2411C125.384 74.2682 125.362 74.2941 125.338 74.3188C125.362 74.2941 125.384 74.2682 125.405 74.2411Z" fill="white"/>
<path d="M125.136 74.4456C125.208 74.4068 125.275 74.3608 125.338 74.3084C125.362 74.2838 125.384 74.2578 125.405 74.2308C125.486 74.1389 125.554 74.0372 125.61 73.928C125.63 73.8869 125.648 73.8446 125.664 73.8012C125.724 73.653 125.756 73.4952 125.76 73.3354C125.756 73.174 125.723 73.0145 125.664 72.8644C125.648 72.8256 125.63 72.7842 125.612 72.7453C125.556 72.6324 125.485 72.5279 125.4 72.4348C125.379 72.4115 125.364 72.3856 125.34 72.3623C125.277 72.3105 125.208 72.2646 125.136 72.2252V74.4456Z" fill="white"/>
<path d="M21.551 72.7557C21.6069 72.6434 21.6774 72.539 21.7606 72.4451C21.6774 72.539 21.6069 72.6434 21.551 72.7557Z" fill="white"/>
<path d="M21.4993 73.8115C21.4396 73.6633 21.4071 73.5055 21.4036 73.3457C21.4076 73.5055 21.4401 73.6632 21.4993 73.8115Z" fill="white"/>
<path d="M21.758 74.2411C21.6774 74.1492 21.6087 74.0475 21.5536 73.9383C21.6077 74.048 21.6765 74.1499 21.758 74.2411Z" fill="white"/>
<path d="M21.4036 73.3457C21.4074 73.1851 21.4398 73.0265 21.4993 72.8773C21.4398 73.0265 21.4074 73.1851 21.4036 73.3457Z" fill="white"/>
<path d="M21.8229 74.3188C21.9229 74.4166 22.0372 74.4986 22.1619 74.562L22.3741 74.6655V74.6241C22.169 74.5669 21.9801 74.4623 21.8229 74.3188Z" fill="white"/>
<path d="M22.3741 72.0259L22.1619 72.1294C22.0368 72.1922 21.9224 72.2743 21.8229 72.3727C21.9801 72.2291 22.169 72.1245 22.3741 72.0673V72.0259Z" fill="white"/>
<path d="M21.8229 74.3188C21.7996 74.2955 21.7815 74.267 21.7582 74.2411C21.7815 74.267 21.7996 74.2955 21.8229 74.3188Z" fill="white"/>
<path d="M21.4994 72.8773C21.5149 72.8359 21.533 72.7945 21.5511 72.7557C21.533 72.7971 21.5149 72.8333 21.4994 72.8773Z" fill="white"/>
<path d="M21.5537 73.928C21.533 73.8869 21.5148 73.8446 21.4994 73.8012C21.5148 73.8446 21.533 73.8869 21.5537 73.928Z" fill="white"/>
<path d="M21.7607 72.4451C21.784 72.4219 21.7996 72.396 21.8228 72.3727C21.7996 72.396 21.784 72.4219 21.7607 72.4451Z" fill="white"/>
<path d="M22.374 72.0673C22.1689 72.1245 21.9801 72.2291 21.8228 72.3727C21.7995 72.396 21.784 72.4219 21.7607 72.4451C21.6774 72.539 21.607 72.6434 21.5511 72.7557C21.533 72.7945 21.5148 72.8359 21.4993 72.8773C21.4398 73.0265 21.4074 73.1851 21.4036 73.3457C21.4071 73.5055 21.4396 73.6633 21.4993 73.8115C21.5148 73.8549 21.5329 73.8973 21.5537 73.9384C21.6087 74.0475 21.6774 74.1493 21.7581 74.2411C21.7814 74.267 21.7995 74.2955 21.8228 74.3188C21.9801 74.4624 22.1689 74.567 22.374 74.6241V72.0673Z" fill="white"/>
<path d="M22.374 113.287V111.97C22.0585 111.562 21.7189 111.174 21.357 110.808C20.9939 111.174 20.6542 111.563 20.34 111.972V113.292L22.374 113.287Z" fill="white"/>
<path d="M36.3822 125.828C36.0158 125.466 35.6278 125.128 35.2203 124.813H30.0445V126.757H26.1886V126.847H35.2099C35.6208 126.531 36.0122 126.191 36.3822 125.828Z" fill="white"/>
<path d="M23.7145 126.847H26.1963V126.757H23.7481C23.7481 126.785 23.7274 126.816 23.7145 126.847Z" fill="white"/>
<path d="M22.374 126.757V126.847H23.7145C23.7145 126.816 23.7352 126.785 23.7482 126.757H22.374Z" fill="white"/>
<path d="M126.228 110.803C125.838 111.197 125.474 111.617 125.139 112.058V113.287H127.173V111.877C126.878 111.501 126.563 111.143 126.228 110.803Z" fill="white"/>
<path d="M121.384 126.757H117.458V124.813H112.362C111.954 125.129 111.565 125.468 111.198 125.83C111.565 126.193 111.954 126.532 112.362 126.847H121.384V126.757Z" fill="white"/>
<path d="M121.384 126.757V126.847H123.865C123.865 126.816 123.845 126.785 123.834 126.757H121.384Z" fill="white"/>
<path d="M125.136 126.757H123.842C123.842 126.785 123.86 126.816 123.873 126.847H125.144L125.136 126.757Z" fill="white"/>
<path d="M21.357 36.0674C21.7189 35.7007 22.0585 35.3127 22.374 34.9054V25.8815H20.34V34.9028C20.656 35.3105 20.9956 35.6993 21.357 36.0674Z" fill="white"/>
<path d="M30.0522 21.9609H26.1963V22.0514H35.228C35.6324 21.7373 36.0178 21.3994 36.3822 21.0396C36.0118 20.6761 35.6204 20.3348 35.2099 20.0174H30.0522V21.9609Z" fill="white"/>
<path d="M23.717 22.0515H26.1962V21.9609H23.7481C23.7481 21.9893 23.7326 22.0204 23.717 22.0515Z" fill="white"/>
<path d="M22.374 21.9609V22.0515H23.7171C23.7327 22.0204 23.7378 21.9893 23.7508 21.9609H22.374Z" fill="white"/>
<path d="M126.847 25.8815H125.136V34.8123C125.473 35.2536 125.838 35.6728 126.228 36.0674C126.563 35.728 126.878 35.3704 127.173 34.996V25.8815H126.847Z" fill="white"/>
<path d="M111.198 21.0422C111.563 21.3998 111.949 21.7367 112.352 22.0514H121.384V21.9609H117.458V20.0174H112.37C111.959 20.3351 111.567 20.6773 111.198 21.0422Z" fill="white"/>
<path d="M123.832 21.9609H121.384V22.0515H123.86C123.85 22.0204 123.842 21.9893 123.832 21.9609Z" fill="white"/>
<path d="M123.86 22.0515H125.136V21.9609H123.842C123.842 21.9893 123.85 22.0204 123.86 22.0515Z" fill="white"/>
<path d="M126.228 6.01179C126.562 6.35249 126.877 6.71101 127.173 7.08576V0.287415H125.139V7.27468C125.474 6.83077 125.838 6.40893 126.228 6.01179Z" fill="white"/>
<path d="M125.604 16.2003H127.157V7.08578C126.862 6.71102 126.547 6.35251 126.213 6.01181C125.823 6.40645 125.459 6.82568 125.123 7.26693V16.2003H125.604Z" fill="white"/>
<path d="M127.17 18.6561V16.2003H125.136V18.7208C125.451 18.5674 125.796 18.4823 126.146 18.4712C126.497 18.46 126.846 18.523 127.17 18.6561Z" fill="white"/>
<path d="M127.17 19.9268V18.6562C126.846 18.5231 126.497 18.46 126.146 18.4712C125.796 18.4823 125.451 18.5674 125.136 18.7209V19.9268H127.17Z" fill="white"/>
<path d="M125.136 23.3609V25.8815H127.17V23.4256C126.845 23.5571 126.496 23.6193 126.146 23.6081C125.796 23.597 125.452 23.5128 125.136 23.3609Z" fill="white"/>
<path d="M125.136 21.9609V23.3609C125.452 23.5128 125.796 23.597 126.146 23.6082C126.496 23.6193 126.845 23.5571 127.17 23.4256V21.9609H125.136Z" fill="white"/>
<path d="M21.357 6.01179C21.7184 6.37984 22.058 6.76868 22.374 7.17634V0.287415H20.34V7.17634C20.6551 6.76791 20.9947 6.37901 21.357 6.01179Z" fill="white"/>
<path d="M20.7359 16.2003H22.374V7.17635C22.058 6.7687 21.7184 6.37986 21.357 6.01181C20.9947 6.37903 20.6551 6.76793 20.34 7.17635V16.2003H20.7359Z" fill="white"/>
<path d="M22.374 18.682V16.2003H20.34V18.682C20.6608 18.5421 21.007 18.4699 21.357 18.4699C21.707 18.4699 22.0532 18.5421 22.374 18.682Z" fill="white"/>
<path d="M22.374 19.9268V18.682C22.0532 18.5421 21.707 18.4699 21.357 18.4699C21.007 18.4699 20.6608 18.5421 20.34 18.682V19.9268H22.374Z" fill="white"/>
<path d="M21.357 23.6093C21.0072 23.6099 20.661 23.5386 20.34 23.3997V25.8815H22.374V23.3997C22.0529 23.5383 21.7068 23.6096 21.357 23.6093Z" fill="white"/>
<path d="M22.374 23.3997V21.9609H20.34V23.3997C20.6612 23.538 21.0073 23.6093 21.357 23.6093C21.7067 23.6093 22.0528 23.538 22.374 23.3997Z" fill="white"/>
<path d="M126.228 140.858C125.838 140.463 125.474 140.043 125.139 139.601V146.588H127.173V139.784C126.877 140.159 126.562 140.518 126.228 140.858Z" fill="white"/>
<path d="M126.847 130.67H125.136V139.601C125.472 140.043 125.835 140.463 126.225 140.858C126.559 140.518 126.875 140.159 127.17 139.784V130.67H126.847Z" fill="white"/>
<path d="M125.136 128.149V130.67H127.17V128.216C126.869 128.336 126.549 128.398 126.225 128.4C125.848 128.399 125.476 128.313 125.136 128.149Z" fill="white"/>
<path d="M125.136 126.847V128.141C125.475 128.308 125.848 128.397 126.225 128.4C126.549 128.398 126.869 128.336 127.17 128.216V126.847H125.136Z" fill="white"/>
<path d="M125.604 120.989H126.847H127.17V113.284H125.136V120.989H125.604Z" fill="white"/>
<path d="M125.604 120.988H125.136V123.509C125.452 123.357 125.796 123.273 126.146 123.262C126.496 123.251 126.845 123.313 127.17 123.444V120.988H125.617H125.604Z" fill="white"/>
<path d="M125.136 123.509V124.723H127.17V123.444C126.845 123.313 126.496 123.251 126.146 123.262C125.796 123.273 125.452 123.357 125.136 123.509Z" fill="white"/>
<path d="M127.17 126.757H125.136V126.847H127.17V126.757Z" fill="white"/>
<path d="M21.357 140.858C20.9953 140.49 20.6557 140.1 20.34 139.691V146.575H22.374V139.694C22.058 140.101 21.7184 140.49 21.357 140.858Z" fill="white"/>
<path d="M21.9781 130.67H20.34V139.691C20.6557 140.1 20.9953 140.49 21.357 140.858C21.7184 140.49 22.058 140.101 22.374 139.694V130.67H21.9781Z" fill="white"/>
<path d="M20.34 128.188V130.67H22.374V128.191C22.053 128.33 21.7069 128.402 21.357 128.402C21.0071 128.402 20.661 128.33 20.34 128.191V128.188Z" fill="white"/>
<path d="M20.34 126.847V128.188C20.661 128.327 21.0071 128.399 21.357 128.399C21.7069 128.399 22.053 128.327 22.374 128.188V126.845L20.34 126.847Z" fill="white"/>
<path d="M21.9781 120.989H22.374V113.284H20.34V120.989H20.7359H21.9781Z" fill="white"/>
<path d="M22.374 123.47V120.988H20.34V123.47C20.6612 123.332 21.0073 123.261 21.357 123.261C21.7067 123.261 22.0528 123.332 22.374 123.47Z" fill="white"/>
<path d="M22.374 126.757H20.34V126.847H22.374V126.757Z" fill="white"/>
<path d="M22.374 124.723V123.47C22.0528 123.332 21.7067 123.261 21.357 123.261C21.0073 123.261 20.6612 123.332 20.34 123.47V124.723H22.374Z" fill="white"/>
<path d="M6.32919 21.0422C6.73529 20.6421 7.16756 20.2695 7.62313 19.9268H0.609985V21.9609H7.36952C7.00684 21.6731 6.65958 21.3665 6.32919 21.0422Z" fill="white"/>
<path d="M30.0522 19.9242H26.1989V20.0148H30.0522V19.9242Z" fill="white"/>
<path d="M16.5151 21.6529V19.919H7.61535C7.15978 20.2617 6.72751 20.6343 6.32141 21.0344C6.65012 21.3586 6.99565 21.6652 7.35656 21.9531H16.5021L16.5151 21.6529Z" fill="white"/>
<path d="M26.1964 20.0174V19.9268H23.6628C23.6784 19.9578 23.6991 19.9863 23.712 20.0174H26.1964Z" fill="white"/>
<path d="M19.0513 19.9268H16.5151V21.9609H18.9633C18.849 21.667 18.7893 21.3548 18.7873 21.0396C18.7884 20.6533 18.8787 20.2724 19.0513 19.9268Z" fill="white"/>
<path d="M20.34 20.0174V19.9268H19.046C18.8753 20.2729 18.7867 20.6537 18.7872 21.0396C18.7893 21.3548 18.8489 21.667 18.9632 21.9609H20.34V20.0174Z" fill="white"/>
<path d="M22.3741 20.0174H23.712C23.6991 19.9863 23.6784 19.9578 23.6628 19.9268H22.3689L22.3741 20.0174Z" fill="white"/>
<path d="M26.1989 20.4185V21.6607V21.9583H30.0522V20.0148H26.1989V20.4185Z" fill="white"/>
<path d="M26.1963 20.4185V20.0174H23.7119C23.8534 20.3396 23.9265 20.6877 23.9267 21.0396C23.9247 21.3548 23.865 21.667 23.7507 21.9609H26.1963V20.4081V20.4185Z" fill="white"/>
<path d="M23.9267 21.0396C23.9266 20.6877 23.8534 20.3396 23.712 20.0174H22.374V21.9609H23.7482C23.8634 21.6672 23.9239 21.355 23.9267 21.0396Z" fill="white"/>
<path d="M22.374 19.9242H20.34V20.0148H22.374V19.9242Z" fill="white"/>
<path d="M22.374 20.0148H20.34V21.9583H22.374V20.0148Z" fill="white"/>
<path d="M6.32922 125.83C6.73029 125.433 7.15737 125.063 7.60763 124.723H0.620361V126.757H7.39024C7.01954 126.468 6.66531 126.159 6.32922 125.83Z" fill="white"/>
<path d="M16.5151 126.462V124.733H7.60763C7.15738 125.074 6.7303 125.444 6.32922 125.841C6.66197 126.169 7.01274 126.478 7.3799 126.767H16.5151V126.462Z" fill="white"/>
<path d="M30.0522 124.723H26.1989V124.813H30.0522V124.723Z" fill="white"/>
<path d="M19.0461 124.723H16.5151V126.757H18.9659C18.8356 126.431 18.7755 126.082 18.7893 125.731C18.8031 125.381 18.8906 125.037 19.0461 124.723Z" fill="white"/>
<path d="M23.7146 124.813H26.1963V124.723H23.6654C23.6809 124.754 23.7016 124.782 23.7146 124.813Z" fill="white"/>
<path d="M22.374 124.723V124.813H23.7145C23.7016 124.782 23.6809 124.754 23.6654 124.723H22.374Z" fill="white"/>
<path d="M20.34 124.723H19.0461C18.8906 125.037 18.8031 125.381 18.7893 125.731C18.7755 126.082 18.8356 126.431 18.9658 126.757H20.34V124.723Z" fill="white"/>
<path d="M26.1989 125.207V126.449V126.754H30.0522V124.813H26.1989V125.207Z" fill="white"/>
<path d="M26.1963 125.209V124.813H23.7145C23.8551 125.134 23.9273 125.48 23.9267 125.83C23.9252 126.148 23.8647 126.462 23.7481 126.757H26.1963V125.204V125.209Z" fill="white"/>
<path d="M22.374 126.757H23.7482C23.8647 126.462 23.9253 126.148 23.9267 125.83C23.9274 125.48 23.8551 125.134 23.7145 124.813H22.374V126.757Z" fill="white"/>
<path d="M22.374 124.723H20.34V126.754H22.374V124.813V124.723Z" fill="white"/>
<path d="M141.253 21.0396C140.847 20.6409 140.414 20.2692 139.959 19.9268H131.067V21.9609H140.202C140.569 21.6728 140.92 21.3653 141.253 21.0396Z" fill="white"/>
<path d="M121.386 19.9242H117.458V20.0148H121.386V19.9242Z" fill="white"/>
<path d="M128.795 21.0396C128.793 21.3548 128.734 21.667 128.619 21.9609H131.067V19.9268H128.531C128.703 20.2729 128.793 20.6534 128.795 21.0396Z" fill="white"/>
<path d="M123.868 20.0174C123.884 19.9863 123.904 19.9578 123.917 19.9268H121.384V20.0174H123.868Z" fill="white"/>
<path d="M125.136 20.0174V19.9268H123.917C123.904 19.9578 123.883 19.9863 123.868 20.0174H125.136Z" fill="white"/>
<path d="M128.531 19.9268H127.17V21.9609H128.619C128.734 21.667 128.793 21.3548 128.795 21.0396C128.793 20.6534 128.703 20.2729 128.531 19.9268Z" fill="white"/>
<path d="M121.384 20.4185V20.0148H117.458V21.9583H121.384V21.6607V20.4185Z" fill="white"/>
<path d="M123.653 21.0396C123.655 20.6878 123.728 20.34 123.868 20.0174H121.384V21.9609H123.832C123.716 21.6675 123.655 21.3551 123.653 21.0396Z" fill="white"/>
<path d="M123.868 20.0174C123.728 20.34 123.654 20.6878 123.653 21.0396C123.655 21.3551 123.715 21.6675 123.832 21.9609H125.126V20.0174H123.868Z" fill="white"/>
<path d="M127.17 19.9242H125.136V20.0148H127.17V19.9242Z" fill="white"/>
<path d="M127.17 20.0148H125.136V21.9583H127.17V20.0148Z" fill="white"/>
<path d="M121.386 124.723H117.458V124.813H121.386V124.723Z" fill="white"/>
<path d="M131.067 125.209V126.762H140.202C140.571 126.472 140.922 126.162 141.256 125.833C140.854 125.438 140.428 125.069 139.98 124.728H131.067V125.209Z" fill="white"/>
<path d="M121.384 124.723V124.813H123.865C123.865 124.782 123.899 124.754 123.915 124.723H121.384Z" fill="white"/>
<path d="M128.617 126.757H131.067V124.723H128.536C128.692 125.037 128.779 125.381 128.793 125.731C128.807 126.082 128.747 126.431 128.617 126.757Z" fill="white"/>
<path d="M127.17 126.757H128.617C128.747 126.431 128.807 126.082 128.793 125.731C128.779 125.381 128.692 125.037 128.536 124.723H127.17V126.757Z" fill="white"/>
<path d="M123.865 124.813H125.136V124.723H123.914C123.899 124.754 123.878 124.782 123.865 124.813Z" fill="white"/>
<path d="M121.384 125.207V124.813H117.458V126.754H121.384V126.449V125.207Z" fill="white"/>
<path d="M123.653 125.83C123.654 125.48 123.726 125.134 123.865 124.813H121.384V126.757H123.834C123.716 126.462 123.654 126.148 123.653 125.83Z" fill="white"/>
<path d="M123.865 124.813C123.726 125.134 123.654 125.48 123.653 125.83C123.654 126.148 123.716 126.462 123.834 126.757H125.128V124.813H123.865Z" fill="white"/>
<path d="M125.136 126.754H127.17V124.723H125.136V124.813V126.754Z" fill="white"/>
</g>
<defs>
<clipPath id="clip0">
<rect width="146.29" height="146.287" fill="white" transform="translate(0.609985 0.287415)"/>
</clipPath>
</defs>
</svg>