<?xml version="1.0" encoding="UTF-8" standalone="no"?>
<!DOCTYPE svg PUBLIC "-//W3C//DTD SVG 1.1//EN" "http://www.w3.org/Graphics/SVG/1.1/DTD/svg11.dtd">
<svg width="100%" height="100%" viewBox="0 0 650 867" version="1.1" xmlns="http://www.w3.org/2000/svg" xmlns:xlink="http://www.w3.org/1999/xlink" xml:space="preserve" xmlns:serif="http://www.serif.com/" style="fill-rule:evenodd;clip-rule:evenodd;stroke-linejoin:round;stroke-miterlimit:2;">
    <g id="講台文化" transform="matrix(1,0,0,1,266.212,-44.9482)">
        <g>
            <g id="reddotring" transform="matrix(1.89685,0,0,1.89685,-149.291,-113.156)">
                <circle cx="175.774" cy="153.094" r="21.088" style="fill-opacity:0;"/>
            </g>
            <g id="reddot" transform="matrix(0.450503,0,0,0.450503,104.941,108.272)">
                <circle cx="175.774" cy="153.094" r="21.088" style="fill:rgb(255,4,0);"/>
            </g>
        </g>
        <g transform="matrix(1,0,0,1,-8.01185,-16.9547)">
            <g id="photoring" transform="matrix(3.3195,0,0,3.3195,-323.674,-237.908)">
                <circle cx="175.774" cy="153.094" r="21.088" style="fill:white;"/>
            </g>
            <g id="photo" transform="matrix(2.94012,0,0,2.94012,-256.99,-179.828)">
                <circle cx="175.774" cy="153.094" r="21.088" style="fill:rgb(194,0,243);"/>
            </g>
        </g>
    </g>
    <g id="城市發展交流" transform="matrix(1,0,0,1,266.212,-44.9482)">
        <g>
            <g id="reddotring1" serif:id="reddotring" transform="matrix(1.89685,0,0,1.89685,-149.291,-113.156)">
                <circle cx="175.774" cy="153.094" r="21.088" style="fill-opacity:0;"/>
            </g>
            <g id="reddot1" serif:id="reddot" transform="matrix(0.450503,0,0,0.450503,104.941,108.272)">
                <circle cx="175.774" cy="153.094" r="21.088" style="fill:rgb(255,4,0);"/>
            </g>
        </g>
        <g transform="matrix(1,0,0,1,-8.01185,-16.9547)">
            <g id="photoring1" serif:id="photoring" transform="matrix(3.3195,0,0,3.3195,-323.674,-237.908)">
                <circle cx="175.774" cy="153.094" r="21.088" style="fill:white;"/>
            </g>
            <g id="photo1" serif:id="photo" transform="matrix(2.94012,0,0,2.94012,-256.99,-179.828)">
                <circle cx="175.774" cy="153.094" r="21.088" style="fill:rgb(194,0,243);"/>
            </g>
        </g>
    </g>
    <g id="蒲公英" transform="matrix(1,0,0,1,288.879,-41.3413)">
        <g>
            <g id="reddotring2" serif:id="reddotring" transform="matrix(1.89685,0,0,1.89685,-149.291,-113.156)">
                <circle cx="175.774" cy="153.094" r="21.088" style="fill-opacity:0;"/>
            </g>
            <g id="reddot2" serif:id="reddot" transform="matrix(0.450503,0,0,0.450503,104.941,108.272)">
                <circle cx="175.774" cy="153.094" r="21.088" style="fill:rgb(255,4,0);"/>
            </g>
        </g>
        <g transform="matrix(1,0,0,1,-8.01185,-16.9547)">
            <g id="photoring2" serif:id="photoring" transform="matrix(3.3195,0,0,3.3195,-323.674,-237.908)">
                <circle cx="175.774" cy="153.094" r="21.088" style="fill:white;"/>
            </g>
            <g id="photo2" serif:id="photo" transform="matrix(2.94012,0,0,2.94012,-256.99,-179.828)">
                <circle cx="175.774" cy="153.094" r="21.088" style="fill:rgb(194,0,243);"/>
            </g>
        </g>
    </g>
    <g id="台北市眷村" transform="matrix(1,0,0,1,263.806,-66.8555)">
        <g>
            <g id="reddotring3" serif:id="reddotring" transform="matrix(1.89685,0,0,1.89685,-149.291,-113.156)">
                <circle cx="175.774" cy="153.094" r="21.088" style="fill-opacity:0;"/>
            </g>
            <g id="reddot3" serif:id="reddot" transform="matrix(0.450503,0,0,0.450503,104.941,108.272)">
                <circle cx="175.774" cy="153.094" r="21.088" style="fill:rgb(255,4,0);"/>
            </g>
        </g>
        <g transform="matrix(1,0,0,1,-8.01185,-16.9547)">
            <g id="photoring3" serif:id="photoring" transform="matrix(3.3195,0,0,3.3195,-323.674,-237.908)">
                <circle cx="175.774" cy="153.094" r="21.088" style="fill:white;"/>
            </g>
            <g id="photo3" serif:id="photo" transform="matrix(2.94012,0,0,2.94012,-256.99,-179.828)">
                <circle cx="175.774" cy="153.094" r="21.088" style="fill:rgb(194,0,243);"/>
            </g>
        </g>
    </g>
    <g id="國防大學" transform="matrix(1,0,0,1,247.8,-70.2504)">
        <g>
            <g id="reddotring4" serif:id="reddotring" transform="matrix(1.89685,0,0,1.89685,-149.291,-113.156)">
                <circle cx="175.774" cy="153.094" r="21.088" style="fill-opacity:0;"/>
            </g>
            <g id="reddot4" serif:id="reddot" transform="matrix(0.450503,0,0,0.450503,104.941,108.272)">
                <circle cx="175.774" cy="153.094" r="21.088" style="fill:rgb(255,4,0);"/>
            </g>
        </g>
        <g transform="matrix(1,0,0,1,-8.01185,-16.9547)">
            <g id="photoring4" serif:id="photoring" transform="matrix(3.3195,0,0,3.3195,-323.674,-237.908)">
                <circle cx="175.774" cy="153.094" r="21.088" style="fill:white;"/>
            </g>
            <g id="photo4" serif:id="photo" transform="matrix(2.94012,0,0,2.94012,-256.99,-179.828)">
                <circle cx="175.774" cy="153.094" r="21.088" style="fill:rgb(194,0,243);"/>
            </g>
        </g>
    </g>
    <g id="陸一" transform="matrix(1,0,0,1,233.635,-45.4896)">
        <g>
            <g id="reddotring5" serif:id="reddotring" transform="matrix(1.89685,0,0,1.89685,-149.291,-113.156)">
                <circle cx="175.774" cy="153.094" r="21.088" style="fill-opacity:0;"/>
            </g>
            <g id="reddot5" serif:id="reddot" transform="matrix(0.450503,0,0,0.450503,104.941,108.272)">
                <circle cx="175.774" cy="153.094" r="21.088" style="fill:rgb(255,4,0);"/>
            </g>
        </g>
        <g transform="matrix(1,0,0,1,-8.01185,-16.9547)">
            <g id="photoring5" serif:id="photoring" transform="matrix(3.3195,0,0,3.3195,-323.674,-237.908)">
                <circle cx="175.774" cy="153.094" r="21.088" style="fill:white;"/>
            </g>
            <g id="photo5" serif:id="photo" transform="matrix(2.94012,0,0,2.94012,-256.99,-179.828)">
                <circle cx="175.774" cy="153.094" r="21.088" style="fill:rgb(194,0,243);"/>
            </g>
        </g>
    </g>
    <g id="禾藝" transform="matrix(1,0,0,1,247.145,-21.9272)">
        <g>
            <g id="reddotring6" serif:id="reddotring" transform="matrix(1.89685,0,0,1.89685,-149.291,-113.156)">
                <circle cx="175.774" cy="153.094" r="21.088" style="fill-opacity:0;"/>
            </g>
            <g id="reddot6" serif:id="reddot" transform="matrix(0.450503,0,0,0.450503,104.941,108.272)">
                <circle cx="175.774" cy="153.094" r="21.088" style="fill:rgb(255,4,0);"/>
            </g>
        </g>
        <g transform="matrix(1,0,0,1,-8.01185,-16.9547)">
            <g id="photoring6" serif:id="photoring" transform="matrix(3.3195,0,0,3.3195,-323.674,-237.908)">
                <circle cx="175.774" cy="153.094" r="21.088" style="fill:white;"/>
            </g>
            <g id="photo6" serif:id="photo" transform="matrix(2.94012,0,0,2.94012,-256.99,-179.828)">
                <circle cx="175.774" cy="153.094" r="21.088" style="fill:rgb(194,0,243);"/>
            </g>
        </g>
    </g>
    <g id="民生社區" transform="matrix(1,0,0,1,275.243,174.67)">
        <g>
            <g id="reddotring7" serif:id="reddotring" transform="matrix(1.89685,0,0,1.89685,-149.291,-113.156)">
                <circle cx="175.774" cy="153.094" r="21.088" style="fill-opacity:0;"/>
            </g>
            <g id="reddot7" serif:id="reddot" transform="matrix(0.450503,0,0,0.450503,104.941,108.272)">
                <circle cx="175.774" cy="153.094" r="21.088" style="fill:rgb(255,4,0);"/>
            </g>
        </g>
        <g transform="matrix(1,0,0,1,-8.01185,-16.9547)">
            <g id="photoring7" serif:id="photoring" transform="matrix(3.3195,0,0,3.3195,-323.674,-237.908)">
                <circle cx="175.774" cy="153.094" r="21.088" style="fill:white;"/>
            </g>
            <g id="photo7" serif:id="photo" transform="matrix(2.94012,0,0,2.94012,-256.99,-179.828)">
                <circle cx="175.774" cy="153.094" r="21.088" style="fill:rgb(194,0,243);"/>
            </g>
        </g>
    </g>
    <g id="勝利不廢" transform="matrix(1,0,0,1,245.925,267.121)">
        <g>
            <g id="reddotring8" serif:id="reddotring" transform="matrix(1.89685,0,0,1.89685,-149.291,-113.156)">
                <circle cx="175.774" cy="153.094" r="21.088" style="fill-opacity:0;"/>
            </g>
            <g id="reddot8" serif:id="reddot" transform="matrix(0.450503,0,0,0.450503,104.941,108.272)">
                <circle cx="175.774" cy="153.094" r="21.088" style="fill:rgb(255,4,0);"/>
            </g>
        </g>
        <g transform="matrix(1,0,0,1,-8.01185,-16.9547)">
            <g id="photoring8" serif:id="photoring" transform="matrix(3.3195,0,0,3.3195,-323.674,-237.908)">
                <circle cx="175.774" cy="153.094" r="21.088" style="fill:white;"/>
            </g>
            <g id="photo8" serif:id="photo" transform="matrix(2.94012,0,0,2.94012,-256.99,-179.828)">
                <circle cx="175.774" cy="153.094" r="21.088" style="fill:rgb(194,0,243);"/>
            </g>
        </g>
    </g>
    <g id="臺南市文化資產" transform="matrix(1,0,0,1,-19.6338,413.366)">
        <g>
            <g id="reddotring9" serif:id="reddotring" transform="matrix(1.89685,0,0,1.89685,-149.291,-113.156)">
                <circle cx="175.774" cy="153.094" r="21.088" style="fill-opacity:0;"/>
            </g>
            <g id="reddot9" serif:id="reddot" transform="matrix(0.450503,0,0,0.450503,104.941,108.272)">
                <circle cx="175.774" cy="153.094" r="21.088" style="fill:rgb(255,4,0);"/>
            </g>
        </g>
        <g transform="matrix(1,0,0,1,-8.01185,-16.9547)">
            <g id="photoring9" serif:id="photoring" transform="matrix(3.3195,0,0,3.3195,-323.674,-237.908)">
                <circle cx="175.774" cy="153.094" r="21.088" style="fill:white;"/>
            </g>
            <g id="photo9" serif:id="photo" transform="matrix(2.94012,0,0,2.94012,-256.99,-179.828)">
                <circle cx="175.774" cy="153.094" r="21.088" style="fill:rgb(194,0,243);"/>
            </g>
        </g>
    </g>
</svg>
