<svg width="586" height="147" viewBox="0 0 586 147" fill="none" xmlns="http://www.w3.org/2000/svg">
<circle cx="73.1692" cy="73.1692" r="73.1692" fill="white"/>
<circle cx="73" cy="73" r="65" stroke="#052F6E" stroke-width="2"/>
<path d="M48.4088 58.6219C52.8868 56.6902 57.2769 54.4074 61.4915 51.9489V57.1293H84.5837V52.5635C88.7104 54.8464 92.925 56.8658 97.2273 58.6219H48.4088ZM98.2809 88.8262C95.5591 90.67 92.4859 92.6017 89.5884 94.3578C85.5495 92.3383 81.5106 90.4066 77.9106 88.8262H98.2809ZM58.7696 101.119V88.8262H75.5399L68.0767 95.4992C70.7986 96.7284 73.6083 98.1333 76.5936 99.7137L58.7696 101.119ZM58.7696 77.763H86.7787V79.8702H58.7696V77.763ZM86.7787 69.8607H58.7696V67.49H86.7787V69.8607ZM66.4084 48.8758C68.4279 47.5587 70.3596 46.1539 72.2034 44.6612C74.1351 46.0661 76.1546 47.4709 78.3496 48.8758H66.4084ZM70.4474 29.9981C62.2817 40.0955 46.3893 47.8221 31.7262 52.0367C34.6237 54.8464 37.8724 59.0609 39.4529 62.134C41.7358 61.3438 44.0186 60.4658 46.2137 59.4999V97.6065C46.2137 101.733 43.843 104.367 41.7358 105.772C43.5796 107.616 46.2137 112.094 47.0918 114.64C49.9893 113.323 54.4672 112.621 78.2618 110.075C77.9984 107.792 78.0862 103.753 78.3496 100.592C86.9543 105.245 95.7347 110.601 100.564 114.552L109.608 106.036C107.149 104.192 103.9 102.084 100.213 100.065C104.076 97.9577 108.115 95.6748 111.715 93.3919L102.495 85.6652C101.617 86.3677 100.739 87.0701 99.6858 87.7725V59.5877C102.408 60.6414 105.217 61.6072 107.851 62.3974C109.608 59.3243 113.295 54.3196 116.105 51.7733C103.286 48.8758 88.9738 43.5198 79.9301 37.5492C80.5447 36.9345 81.1593 36.2321 81.774 35.5297L70.4474 29.9981Z" fill="#052F6E"/>
<circle cx="219.508" cy="73.1692" r="73.1692" fill="white"/>
<circle cx="219" cy="73" r="65" stroke="#052F6E" stroke-width="2"/>
<path d="M241.81 34.3883C239.702 41.4125 235.751 50.2806 232.239 56.0756L243.478 60.2902C247.078 55.022 251.468 46.8563 255.419 38.954L241.81 34.3883ZM206.249 55.9C204.845 50.0172 200.718 41.4125 196.942 34.8273L185.44 39.2174C188.952 46.1539 192.64 55.1976 193.781 60.9048L206.249 55.9ZM239.966 102.523C237.419 102.523 237.068 102.084 237.068 98.7479V74.8655H259.546V62.8365H225.654V31.403H212.659V62.8365H179.645V74.8655H200.015C198.962 88.0359 197.03 97.8699 177.099 103.753C179.908 106.387 183.421 111.567 184.825 114.991C208.444 107.001 212.22 92.8651 213.713 74.8655H224.161V98.8357C224.161 110.514 226.883 114.465 237.946 114.465H247.253C256.736 114.465 259.897 110.075 261.126 94.1821C257.79 93.3041 252.17 91.109 249.536 89.0018C249.097 100.68 248.658 102.523 246.112 102.523H239.966Z" fill="#052F6E"/>
<circle cx="366.169" cy="73.1692" r="73.1692" fill="white"/>
<circle cx="365" cy="73" r="65" stroke="#052F6E" stroke-width="2"/>
<path d="M351.271 102.611V100.241H379.104V102.611H351.271ZM351.271 89.7042H379.104V91.9871H351.271V89.7042ZM379.104 81.4507H351.271V79.2556H379.104V81.4507ZM373.748 65.9974C374.626 67.2266 375.592 68.368 376.646 69.5095H356.539C357.68 68.368 358.734 67.2266 359.7 65.9974H373.748ZM405.445 65.9974V55.8122H366.549C367.075 54.8464 367.602 53.9683 368.041 53.0025H400.089V42.8174H389.816C391.397 40.6223 393.153 38.076 394.821 35.5297L382.968 31.9298C381.651 35.1785 379.368 39.4808 377.261 42.8174H371.992C373.046 39.4808 373.836 35.9687 374.539 32.4566L361.544 31.0517C360.929 35.0907 360.051 39.0418 358.734 42.8174H351.446L354.783 41.1491C353.641 38.4272 350.92 34.3883 348.549 31.4908L338.539 36.2321C339.944 38.1638 341.437 40.6223 342.578 42.8174H331.691V53.0025H353.993C353.378 53.9683 352.763 54.9342 352.061 55.8122H326.335V65.9974H341.964C337.047 69.6851 330.988 72.9338 323.613 75.5679C326.335 77.8508 329.759 82.8556 330.988 86.0165C333.886 84.875 336.52 83.6458 339.066 82.3287V114.816H351.271V112.357H379.104V114.816H391.924V81.3629C394.733 82.7677 397.719 84.0848 400.792 85.0506C402.46 81.9775 405.972 77.324 408.606 74.9533C401.143 73.1094 394.382 69.9485 389.026 65.9974H405.445Z" fill="#052F6E"/>
<circle cx="512.185" cy="73.1692" r="73.1692" fill="white"/>
<circle cx="512" cy="73" r="65" stroke="#052F6E" stroke-width="2"/>
<path d="M523.16 96.6406V70.4753C524.74 70.2119 526.321 69.8607 527.901 69.4217C528.955 78.202 530.448 86.1921 532.731 93.2163L523.16 96.6406ZM494.624 74.7777C494.097 93.3919 493.483 100.416 492.341 102.172C491.551 103.226 490.936 103.577 489.795 103.577C488.566 103.577 486.81 103.489 484.527 103.314C488.39 93.8309 489.795 83.8214 490.234 74.7777H494.624ZM544.321 68.6315C543.091 70.2997 541.511 72.2314 539.843 74.0752C539.404 71.6168 538.965 69.1583 538.701 66.612C543.179 65.2949 547.481 63.8023 551.345 62.134L541.774 53.2659C535.277 56.4268 525.443 59.5877 515.697 61.7828C517.716 59.1487 519.472 56.1634 521.141 52.9147H552.223V41.4125H525.882C526.672 38.8662 527.462 36.3199 528.077 33.6858L515.785 31.3151C514.116 39.5686 510.868 47.5587 506.39 53.5293V44.5734H492.429L497.522 42.8174C496.819 39.5686 495.063 34.7395 493.307 31.1395L482.244 34.5639C483.561 37.5492 484.878 41.4125 485.58 44.5734H471.444V56.339H479.083V67.49C479.083 78.9922 477.941 94.0943 469.073 107.879C472.059 109.723 476.098 112.709 478.293 114.991C480.751 111.479 482.771 107.704 484.351 103.928C485.844 106.826 486.81 111.04 487.073 114.113C490.585 114.201 493.834 114.113 496.029 113.674C498.575 113.148 500.419 112.182 502.263 109.46C504.634 106.123 505.336 95.4992 506.038 67.929C506.038 66.5242 506.126 63.2755 506.126 63.2755H490.409V56.339H504.019C503.492 56.9536 502.877 57.5683 502.263 58.0951C504.546 59.4999 508.409 62.3974 510.955 64.5925V95.0602C510.955 99.9772 508.585 103.489 506.477 105.333C508.409 107.089 511.746 111.567 512.799 114.113C514.731 112.533 517.98 111.128 533.96 104.719C533.345 101.997 532.731 96.8162 532.731 93.3041C535.452 101.47 539.228 108.143 544.935 112.972C546.779 109.635 550.642 104.719 553.54 102.348C548.623 98.6601 545.286 92.9529 542.828 86.0165C546.252 83.2068 549.94 79.8702 553.189 76.6215L544.321 68.6315Z" fill="#052F6E"/>
</svg>