<svg width="586" height="147" viewBox="0 0 586 147" fill="none" xmlns="http://www.w3.org/2000/svg">
<circle cx="73.1692" cy="73.1692" r="73.1692" fill="white"/>
<circle cx="73" cy="73" r="65" stroke="#052F6E" stroke-width="2"/>
<path d="M58.594 102.611V100.241H86.4275V102.611H58.594ZM58.594 89.7042H86.4275V91.9871H58.594V89.7042ZM86.4275 81.4507H58.594V79.2556H86.4275V81.4507ZM81.0715 65.9974C81.9496 67.2266 82.9154 68.368 83.969 69.5095H63.8621C65.0036 68.368 66.0572 67.2266 67.0231 65.9974H81.0715ZM112.768 65.9974V55.8122H73.8717C74.3985 54.8464 74.9253 53.9683 75.3643 53.0025H107.412V42.8174H97.1395C98.72 40.6223 100.476 38.076 102.144 35.5297L90.2909 31.9298C88.9738 35.1785 86.6909 39.4808 84.5837 42.8174H79.3155C80.3691 39.4808 81.1593 35.9687 81.8618 32.4566L68.8669 31.0517C68.2523 35.0907 67.3743 39.0418 66.0572 42.8174H58.7696L62.1061 41.1491C60.9646 38.4272 58.2427 34.3883 55.8721 31.4908L45.8625 36.2321C47.2674 38.1638 48.76 40.6223 49.9015 42.8174H39.0139V53.0025H61.3159C60.7012 53.9683 60.0866 54.9342 59.3842 55.8122H33.6579V65.9974H49.2868C44.3699 69.6851 38.3114 72.9338 30.936 75.5679C33.6579 77.8508 37.0822 82.8556 38.3114 86.0165C41.2089 84.875 43.843 83.6458 46.3893 82.3287V114.816H58.594V112.357H86.4275V114.816H99.2468V81.3629C102.056 82.7677 105.042 84.0848 108.115 85.0506C109.783 81.9775 113.295 77.324 115.929 74.9533C108.466 73.1094 101.705 69.9485 96.3493 65.9974H112.768Z" fill="#052F6E"/>
<circle cx="219.508" cy="73.1692" r="73.1692" fill="white"/>
<circle cx="219" cy="73" r="65" stroke="#052F6E" stroke-width="2"/>
<path d="M220.386 67.929C219.947 82.6799 219.42 88.1237 218.454 89.5286C217.839 90.4944 217.225 90.7578 216.259 90.7578C215.117 90.7578 213.713 90.7578 211.869 90.4944C215.117 83.3824 216.435 75.1289 216.961 67.929H220.386ZM207.303 59.0609C207.303 67.929 206.601 81.8897 199.752 91.0212C202.035 92.5139 205.635 96.026 207.215 98.1333C209.059 95.9382 210.552 93.3919 211.781 90.7578C213.186 93.4797 214.152 97.6065 214.327 100.592C217.488 100.592 220.298 100.504 222.23 100.153C224.425 99.6259 226.093 98.8357 227.761 96.465C229.781 93.5675 230.483 84.6116 231.098 61.8706C231.098 60.6414 231.185 57.7439 231.185 57.7439H217.225V52.8269H230.659V51.9489C231.8 52.8269 232.942 53.7927 234.083 54.6708V63.0121H244.268C243.127 64.2413 241.985 65.3827 240.844 66.3486V70.7387H232.239V80.6605H240.844V88.3871C240.844 89.1774 240.58 89.4408 239.527 89.4408C238.561 89.4408 235.312 89.4408 232.415 89.353C233.907 92.2505 235.488 96.7284 235.839 99.8015C240.756 99.8015 244.619 99.6259 247.692 97.9577C250.941 96.2894 251.556 93.3041 251.556 88.5628V80.6605H260.775V70.7387H251.556V68.5437C254.892 65.3827 258.141 61.7828 260.775 58.4463L254.19 53.3537L252.17 53.9683H239C239.79 52.7391 240.493 51.4221 241.283 50.0172H261.039V39.6564H246.112C246.902 37.7248 247.692 35.7053 248.307 33.8614L237.858 30.8761C236.19 36.4077 233.556 42.2905 230.659 46.9441V42.4661H223.283L223.722 42.3783C223.195 39.3052 221.878 34.7395 220.737 31.2273L209.674 33.0712C210.464 35.8809 211.342 39.5686 211.957 42.4661H200.981V52.8269H207.303V59.0609ZM200.191 44.8368C197.996 41.2369 193.781 35.7053 190.181 31.5786L180.435 36.8467C183.86 41.2369 188.074 47.3831 190.006 51.1586L200.191 44.8368ZM197.557 72.7582L195.625 73.0216H192.991C197.206 67.1388 201.859 59.3243 204.845 54.583L197.118 51.4221L195.625 52.0367H179.118V62.0462H188.601C186.055 66.0852 183.421 69.8607 182.191 71.1777C180.523 72.9338 179.118 73.724 177.538 74.0752C178.679 76.2703 180.874 81.5385 181.489 84.1726C182.279 83.3824 185.001 82.7677 187.021 82.7677H190.533C188.162 93.7431 183.596 101.909 176.835 106.738C179.206 108.406 183.421 112.709 185.001 115.167C188.864 112.182 192.201 108.055 195.011 102.787C201.596 111.655 211.43 113.323 226.883 113.323C237.507 113.323 248.834 113.06 258.492 112.445C259.107 109.021 260.775 103.314 262.531 100.767C251.995 101.821 236.629 102.436 227.147 102.436C213.361 102.348 204.054 101.206 199.313 91.7237C200.806 86.7189 201.947 81.0995 202.737 74.8655L197.557 72.7582Z" fill="#052F6E"/>
<circle cx="366.169" cy="73.1692" r="73.1692" fill="white"/>
<circle cx="365" cy="73" r="65" stroke="#052F6E" stroke-width="2"/>
<path d="M341.086 58.6219C345.564 56.6902 349.954 54.4074 354.168 51.9489V57.1293H377.261V52.5635C381.387 54.8464 385.602 56.8658 389.904 58.6219H341.086ZM390.958 88.8262C388.236 90.67 385.163 92.6017 382.265 94.3578C378.226 92.3383 374.187 90.4066 370.587 88.8262H390.958ZM351.446 101.119V88.8262H368.217L360.754 95.4992C363.475 96.7284 366.285 98.1333 369.27 99.7137L351.446 101.119ZM351.446 77.763H379.456V79.8702H351.446V77.763ZM379.456 69.8607H351.446V67.49H379.456V69.8607ZM359.085 48.8758C361.105 47.5587 363.036 46.1539 364.88 44.6612C366.812 46.0661 368.831 47.4709 371.026 48.8758H359.085ZM363.124 29.9981C354.959 40.0955 339.066 47.8221 324.403 52.0367C327.301 54.8464 330.549 59.0609 332.13 62.134C334.413 61.3438 336.695 60.4658 338.891 59.4999V97.6065C338.891 101.733 336.52 104.367 334.413 105.772C336.256 107.616 338.891 112.094 339.769 114.64C342.666 113.323 347.144 112.621 370.939 110.075C370.675 107.792 370.763 103.753 371.026 100.592C379.631 105.245 388.412 110.601 393.241 114.552L402.284 106.036C399.826 104.192 396.577 102.084 392.889 100.065C396.753 97.9577 400.792 95.6748 404.392 93.3919L395.172 85.6652C394.294 86.3677 393.416 87.0701 392.363 87.7725V59.5877C395.085 60.6414 397.894 61.6072 400.528 62.3974C402.284 59.3243 405.972 54.3196 408.782 51.7733C395.963 48.8758 381.651 43.5198 372.607 37.5492C373.222 36.9345 373.836 36.2321 374.451 35.5297L363.124 29.9981Z" fill="#052F6E"/>
<circle cx="512.185" cy="73.1692" r="73.1692" fill="white"/>
<circle cx="512" cy="73" r="65" stroke="#052F6E" stroke-width="2"/>
<path d="M534.487 34.3883C532.379 41.4125 528.428 50.2806 524.916 56.0756L536.155 60.2902C539.755 55.022 544.145 46.8563 548.096 38.954L534.487 34.3883ZM498.926 55.9C497.522 50.0172 493.395 41.4125 489.619 34.8273L478.117 39.2174C481.629 46.1539 485.317 55.1976 486.458 60.9048L498.926 55.9ZM532.643 102.523C530.096 102.523 529.745 102.084 529.745 98.7479V74.8655H552.223V62.8365H518.331V31.403H505.336V62.8365H472.322V74.8655H492.692C491.639 88.0359 489.707 97.8699 469.776 103.753C472.585 106.387 476.098 111.567 477.502 114.991C501.121 107.001 504.897 92.8651 506.39 74.8655H516.838V98.8357C516.838 110.514 519.56 114.465 530.623 114.465H539.93C549.413 114.465 552.574 110.075 553.803 94.1821C550.467 93.3041 544.847 91.109 542.213 89.0018C541.774 100.68 541.335 102.523 538.789 102.523H532.643Z" fill="#052F6E"/>
</svg>
